%TF.GenerationSoftware,KiCad,Pcbnew,9.0.6*%
%TF.CreationDate,2025-12-03T11:59:54+00:00*%
%TF.ProjectId,SLSS LightRail,534c5353-204c-4696-9768-745261696c2e,rev?*%
%TF.SameCoordinates,Original*%
%TF.FileFunction,Copper,L1,Top*%
%TF.FilePolarity,Positive*%
%FSLAX46Y46*%
G04 Gerber Fmt 4.6, Leading zero omitted, Abs format (unit mm)*
G04 Created by KiCad (PCBNEW 9.0.6) date 2025-12-03 11:59:54*
%MOMM*%
%LPD*%
G01*
G04 APERTURE LIST*
G04 Aperture macros list*
%AMRoundRect*
0 Rectangle with rounded corners*
0 $1 Rounding radius*
0 $2 $3 $4 $5 $6 $7 $8 $9 X,Y pos of 4 corners*
0 Add a 4 corners polygon primitive as box body*
4,1,4,$2,$3,$4,$5,$6,$7,$8,$9,$2,$3,0*
0 Add four circle primitives for the rounded corners*
1,1,$1+$1,$2,$3*
1,1,$1+$1,$4,$5*
1,1,$1+$1,$6,$7*
1,1,$1+$1,$8,$9*
0 Add four rect primitives between the rounded corners*
20,1,$1+$1,$2,$3,$4,$5,0*
20,1,$1+$1,$4,$5,$6,$7,0*
20,1,$1+$1,$6,$7,$8,$9,0*
20,1,$1+$1,$8,$9,$2,$3,0*%
G04 Aperture macros list end*
%TA.AperFunction,SMDPad,CuDef*%
%ADD10RoundRect,0.250000X0.625000X-0.312500X0.625000X0.312500X-0.625000X0.312500X-0.625000X-0.312500X0*%
%TD*%
%TA.AperFunction,SMDPad,CuDef*%
%ADD11R,1.100000X2.000000*%
%TD*%
%TA.AperFunction,SMDPad,CuDef*%
%ADD12RoundRect,0.250000X-0.625000X0.312500X-0.625000X-0.312500X0.625000X-0.312500X0.625000X0.312500X0*%
%TD*%
%TA.AperFunction,SMDPad,CuDef*%
%ADD13RoundRect,0.250000X-0.312500X-0.625000X0.312500X-0.625000X0.312500X0.625000X-0.312500X0.625000X0*%
%TD*%
%TA.AperFunction,SMDPad,CuDef*%
%ADD14RoundRect,0.150000X-0.531218X0.479904X-0.681218X0.220096X0.531218X-0.479904X0.681218X-0.220096X0*%
%TD*%
%TA.AperFunction,SMDPad,CuDef*%
%ADD15RoundRect,0.250000X-0.827628X0.766506X-1.077628X0.333494X0.827628X-0.766506X1.077628X-0.333494X0*%
%TD*%
%TA.AperFunction,ViaPad*%
%ADD16C,0.600000*%
%TD*%
%TA.AperFunction,Conductor*%
%ADD17C,0.200000*%
%TD*%
G04 APERTURE END LIST*
D10*
%TO.P,R4,1*%
%TO.N,Net-(D1-GA)*%
X198000000Y-91500000D03*
%TO.P,R4,2*%
%TO.N,Net-(J1-Pin_2)*%
X198000000Y-88575000D03*
%TD*%
D11*
%TO.P,D2,1,RK*%
%TO.N,Net-(D1-BK)*%
X193800000Y-85400000D03*
%TO.P,D2,2,GK*%
X195500000Y-85400000D03*
%TO.P,D2,3,BK*%
X197200000Y-85400000D03*
%TO.P,D2,4,BA*%
%TO.N,Net-(D2-BA)*%
X197200000Y-80600000D03*
%TO.P,D2,5,GA*%
%TO.N,Net-(D2-GA)*%
X195500000Y-80600000D03*
%TO.P,D2,6,RA*%
%TO.N,Net-(D2-RA)*%
X193800000Y-80600000D03*
%TD*%
%TO.P,D1,1,RK*%
%TO.N,Net-(D1-BK)*%
X196800000Y-98500000D03*
%TO.P,D1,2,GK*%
X198500000Y-98500000D03*
%TO.P,D1,3,BK*%
X200200000Y-98500000D03*
%TO.P,D1,4,BA*%
%TO.N,Net-(D1-BA)*%
X200200000Y-93700000D03*
%TO.P,D1,5,GA*%
%TO.N,Net-(D1-GA)*%
X198500000Y-93700000D03*
%TO.P,D1,6,RA*%
%TO.N,Net-(D1-RA)*%
X196800000Y-93700000D03*
%TD*%
D12*
%TO.P,R7,1*%
%TO.N,Net-(J1-Pin_3)*%
X200500000Y-88575000D03*
%TO.P,R7,2*%
%TO.N,Net-(D1-BA)*%
X200500000Y-91500000D03*
%TD*%
D13*
%TO.P,R9,1*%
%TO.N,Net-(J1-Pin_3)*%
X182575000Y-61000000D03*
%TO.P,R9,2*%
%TO.N,Net-(D3-BA)*%
X185500000Y-61000000D03*
%TD*%
%TO.P,R3,1*%
%TO.N,Net-(J1-Pin_1)*%
X180575000Y-66000000D03*
%TO.P,R3,2*%
%TO.N,Net-(D3-RA)*%
X183500000Y-66000000D03*
%TD*%
%TO.P,R6,1*%
%TO.N,Net-(J1-Pin_2)*%
X182575000Y-63500000D03*
%TO.P,R6,2*%
%TO.N,Net-(D3-GA)*%
X185500000Y-63500000D03*
%TD*%
D11*
%TO.P,D3,1,RK*%
%TO.N,Net-(D1-BK)*%
X186500000Y-71500000D03*
%TO.P,D3,2,GK*%
X188200000Y-71500000D03*
%TO.P,D3,3,BK*%
X189900000Y-71500000D03*
%TO.P,D3,4,BA*%
%TO.N,Net-(D3-BA)*%
X189900000Y-66700000D03*
%TO.P,D3,5,GA*%
%TO.N,Net-(D3-GA)*%
X188200000Y-66700000D03*
%TO.P,D3,6,RA*%
%TO.N,Net-(D3-RA)*%
X186500000Y-66700000D03*
%TD*%
D14*
%TO.P,J1,1,Pin_1*%
%TO.N,Net-(J1-Pin_1)*%
X180374998Y-58752404D03*
%TO.P,J1,2,Pin_2*%
%TO.N,Net-(J1-Pin_2)*%
X179749999Y-59834936D03*
%TO.P,J1,3,Pin_3*%
%TO.N,Net-(J1-Pin_3)*%
X179124998Y-60917468D03*
%TO.P,J1,4,Pin_4*%
%TO.N,Net-(D1-BK)*%
X178500000Y-62000000D03*
D15*
%TO.P,J1,MP*%
%TO.N,N/C*%
X178528718Y-55550257D03*
X174803718Y-62002147D03*
%TD*%
D12*
%TO.P,R8,1*%
%TO.N,Net-(J1-Pin_3)*%
X195500000Y-74075000D03*
%TO.P,R8,2*%
%TO.N,Net-(D2-BA)*%
X195500000Y-77000000D03*
%TD*%
%TO.P,R2,1*%
%TO.N,Net-(J1-Pin_1)*%
X190500000Y-74075000D03*
%TO.P,R2,2*%
%TO.N,Net-(D2-RA)*%
X190500000Y-77000000D03*
%TD*%
%TO.P,R5,1*%
%TO.N,Net-(J1-Pin_2)*%
X193000000Y-74112500D03*
%TO.P,R5,2*%
%TO.N,Net-(D2-GA)*%
X193000000Y-77037500D03*
%TD*%
%TO.P,R1,1*%
%TO.N,Net-(J1-Pin_1)*%
X195500000Y-88575000D03*
%TO.P,R1,2*%
%TO.N,Net-(D1-RA)*%
X195500000Y-91500000D03*
%TD*%
D16*
%TO.N,Net-(D1-BK)*%
X198500000Y-97000000D03*
X187900000Y-73500000D03*
X201500000Y-99000000D03*
X180500000Y-63000000D03*
X195500000Y-99000000D03*
X195500000Y-87500000D03*
%TO.N,Net-(J1-Pin_3)*%
X185000000Y-65000000D03*
X189000000Y-69000000D03*
%TO.N,Net-(J1-Pin_1)*%
X179000000Y-65000000D03*
X182500000Y-58500000D03*
X192000000Y-80500000D03*
X194000000Y-88000000D03*
%TO.N,Net-(J1-Pin_2)*%
X197500000Y-83000000D03*
X178000000Y-58500000D03*
X180500000Y-62100000D03*
X193000000Y-72448000D03*
%TD*%
D17*
%TO.N,Net-(D1-BK)*%
X180000000Y-63000000D02*
X180500000Y-63000000D01*
X200700000Y-99000000D02*
X200200000Y-98500000D01*
X195500000Y-87500000D02*
X195500000Y-85400000D01*
X186500000Y-72500000D02*
X186500000Y-71500000D01*
X187900000Y-73500000D02*
X188500000Y-73500000D01*
X178500000Y-62000000D02*
X179500000Y-63000000D01*
X195500000Y-87500000D02*
X194500000Y-87500000D01*
X195500000Y-87500000D02*
X196500000Y-87500000D01*
X195500000Y-99000000D02*
X196300000Y-99000000D01*
X189900000Y-72100000D02*
X189900000Y-71500000D01*
X194000000Y-85600000D02*
X193800000Y-85400000D01*
X188200000Y-72800000D02*
X188200000Y-71500000D01*
X196300000Y-99000000D02*
X196800000Y-98500000D01*
X196500000Y-87500000D02*
X197200000Y-86800000D01*
X193800000Y-86800000D02*
X193800000Y-85400000D01*
X188500000Y-73500000D02*
X189900000Y-72100000D01*
X187900000Y-73500000D02*
X187500000Y-73500000D01*
X201500000Y-99000000D02*
X200700000Y-99000000D01*
X179500000Y-63000000D02*
X180000000Y-63000000D01*
X187900000Y-73500000D02*
X187900000Y-73100000D01*
X197200000Y-86800000D02*
X197200000Y-85400000D01*
X198500000Y-97000000D02*
X198500000Y-98500000D01*
X187500000Y-73500000D02*
X186500000Y-72500000D01*
X187900000Y-73100000D02*
X188200000Y-72800000D01*
X194500000Y-87500000D02*
X193800000Y-86800000D01*
%TO.N,Net-(D2-RA)*%
X190500000Y-77000000D02*
X190500000Y-79849943D01*
X193299000Y-81101000D02*
X193800000Y-80600000D01*
X191751057Y-81101000D02*
X193299000Y-81101000D01*
X190500000Y-79849943D02*
X191751057Y-81101000D01*
%TO.N,Net-(D2-BA)*%
X195500000Y-77000000D02*
X196351000Y-77851000D01*
X196351000Y-77851000D02*
X196351000Y-79751000D01*
X196351000Y-79751000D02*
X197200000Y-80600000D01*
%TO.N,Net-(D1-RA)*%
X195500000Y-91500000D02*
X196800000Y-92800000D01*
X196800000Y-92800000D02*
X196800000Y-93700000D01*
%TO.N,Net-(D1-GA)*%
X198000000Y-91500000D02*
X198000000Y-93200000D01*
X198000000Y-93200000D02*
X198500000Y-93700000D01*
%TO.N,Net-(D1-BA)*%
X200500000Y-93400000D02*
X200200000Y-93700000D01*
X200500000Y-91500000D02*
X200500000Y-93400000D01*
%TO.N,Net-(D2-GA)*%
X195500000Y-79537500D02*
X195500000Y-80600000D01*
X193000000Y-77037500D02*
X195500000Y-79537500D01*
%TO.N,Net-(D3-GA)*%
X188200000Y-65200000D02*
X188200000Y-66700000D01*
X186500000Y-63500000D02*
X188200000Y-65200000D01*
X185500000Y-63500000D02*
X186500000Y-63500000D01*
%TO.N,Net-(D3-RA)*%
X185000000Y-66000000D02*
X185700000Y-66700000D01*
X183500000Y-66000000D02*
X185000000Y-66000000D01*
X185700000Y-66700000D02*
X186500000Y-66700000D01*
%TO.N,Net-(D3-BA)*%
X189900000Y-65400000D02*
X189900000Y-66700000D01*
X185500000Y-61000000D02*
X189900000Y-65400000D01*
%TO.N,Net-(J1-Pin_3)*%
X184599000Y-63024000D02*
X184599000Y-64599000D01*
X190425000Y-69000000D02*
X195500000Y-74075000D01*
X182575000Y-61000000D02*
X184599000Y-63024000D01*
X179124998Y-60917468D02*
X179417468Y-60917468D01*
X198500000Y-79500000D02*
X197000000Y-78000000D01*
X181500000Y-61500000D02*
X182000000Y-61000000D01*
X197000000Y-78000000D02*
X197000000Y-75575000D01*
X197000000Y-75575000D02*
X195500000Y-74075000D01*
X179417468Y-60917468D02*
X180000000Y-61500000D01*
X180000000Y-61500000D02*
X181500000Y-61500000D01*
X200500000Y-88575000D02*
X198500000Y-86575000D01*
X189000000Y-69000000D02*
X190425000Y-69000000D01*
X182000000Y-61000000D02*
X182575000Y-61000000D01*
X198500000Y-86575000D02*
X198500000Y-79500000D01*
X184599000Y-64599000D02*
X185000000Y-65000000D01*
%TO.N,Net-(J1-Pin_1)*%
X180575000Y-67727000D02*
X186949000Y-74101000D01*
X182247596Y-58752404D02*
X182500000Y-58500000D01*
X190474000Y-74101000D02*
X190500000Y-74075000D01*
X191676000Y-80176000D02*
X192000000Y-80500000D01*
X194925000Y-88000000D02*
X195500000Y-88575000D01*
X180075000Y-65500000D02*
X180575000Y-66000000D01*
X186949000Y-74101000D02*
X190474000Y-74101000D01*
X179000000Y-65000000D02*
X179500000Y-65500000D01*
X180374998Y-58752404D02*
X182247596Y-58752404D01*
X190500000Y-74075000D02*
X191676000Y-75251000D01*
X180575000Y-66000000D02*
X180575000Y-67727000D01*
X191676000Y-75251000D02*
X191676000Y-80176000D01*
X179500000Y-65500000D02*
X180075000Y-65500000D01*
X194000000Y-88000000D02*
X194925000Y-88000000D01*
%TO.N,Net-(J1-Pin_2)*%
X193000000Y-72448000D02*
X193000000Y-74112500D01*
X179334936Y-59834936D02*
X178000000Y-58500000D01*
X182575000Y-66798660D02*
X185975340Y-70199000D01*
X198000000Y-88575000D02*
X198051000Y-88524000D01*
X185975340Y-70199000D02*
X190751000Y-70199000D01*
X179749999Y-59834936D02*
X179334936Y-59834936D01*
X180900000Y-62500000D02*
X181575000Y-62500000D01*
X198051000Y-83551000D02*
X197500000Y-83000000D01*
X198051000Y-88524000D02*
X198051000Y-83551000D01*
X180500000Y-62100000D02*
X180900000Y-62500000D01*
X190751000Y-70199000D02*
X193000000Y-72448000D01*
X181575000Y-62500000D02*
X182575000Y-63500000D01*
X182575000Y-63500000D02*
X182575000Y-66798660D01*
%TD*%
M02*
