%TF.GenerationSoftware,KiCad,Pcbnew,9.0.6*%
%TF.CreationDate,2025-12-03T11:59:54+00:00*%
%TF.ProjectId,SLSS LightRail,534c5353-204c-4696-9768-745261696c2e,rev?*%
%TF.SameCoordinates,Original*%
%TF.FileFunction,Copper,L2,Bot*%
%TF.FilePolarity,Positive*%
%FSLAX46Y46*%
G04 Gerber Fmt 4.6, Leading zero omitted, Abs format (unit mm)*
G04 Created by KiCad (PCBNEW 9.0.6) date 2025-12-03 11:59:54*
%MOMM*%
%LPD*%
G01*
G04 APERTURE LIST*
%TA.AperFunction,ViaPad*%
%ADD10C,0.600000*%
%TD*%
%TA.AperFunction,Conductor*%
%ADD11C,0.200000*%
%TD*%
G04 APERTURE END LIST*
D10*
%TO.N,Net-(D1-BK)*%
X198500000Y-97000000D03*
X187900000Y-73500000D03*
X201500000Y-99000000D03*
X180500000Y-63000000D03*
X195500000Y-99000000D03*
X195500000Y-87500000D03*
%TO.N,Net-(J1-Pin_3)*%
X185000000Y-65000000D03*
X189000000Y-69000000D03*
%TO.N,Net-(J1-Pin_1)*%
X179000000Y-65000000D03*
X182500000Y-58500000D03*
X192000000Y-80500000D03*
X194000000Y-88000000D03*
%TO.N,Net-(J1-Pin_2)*%
X197500000Y-83000000D03*
X178000000Y-58500000D03*
X180500000Y-62100000D03*
X193000000Y-72448000D03*
%TD*%
D11*
%TO.N,Net-(D1-BK)*%
X195500000Y-80000000D02*
X189000000Y-73500000D01*
X195500000Y-87500000D02*
X201500000Y-93500000D01*
X201500000Y-93500000D02*
X201500000Y-99000000D01*
X187900000Y-73500000D02*
X187500000Y-73500000D01*
X195500000Y-94000000D02*
X197500000Y-96000000D01*
X195500000Y-87500000D02*
X195500000Y-94000000D01*
X187000000Y-73000000D02*
X187000000Y-69500000D01*
X197500000Y-96500000D02*
X198000000Y-97000000D01*
X187000000Y-69500000D02*
X180500000Y-63000000D01*
X187500000Y-73500000D02*
X187000000Y-73000000D01*
X195500000Y-87500000D02*
X195500000Y-80000000D01*
X189000000Y-73500000D02*
X187900000Y-73500000D01*
X197500000Y-96000000D02*
X197500000Y-96500000D01*
X195500000Y-87500000D02*
X195500000Y-99000000D01*
X198000000Y-97000000D02*
X198500000Y-97000000D01*
%TO.N,Net-(J1-Pin_3)*%
X185000000Y-65000000D02*
X189000000Y-69000000D01*
%TO.N,Net-(J1-Pin_1)*%
X192000000Y-80500000D02*
X194000000Y-82500000D01*
X179000000Y-62000000D02*
X182500000Y-58500000D01*
X194000000Y-82500000D02*
X194000000Y-88000000D01*
X179000000Y-65000000D02*
X179000000Y-62000000D01*
%TO.N,Net-(J1-Pin_2)*%
X197500000Y-83000000D02*
X197500000Y-80500000D01*
X183101000Y-58251057D02*
X182748943Y-57899000D01*
X183101000Y-60899000D02*
X183101000Y-58251057D01*
X197500000Y-80500000D02*
X195000000Y-78000000D01*
X178601000Y-57899000D02*
X178000000Y-58500000D01*
X181900000Y-62100000D02*
X183101000Y-60899000D01*
X195000000Y-74448000D02*
X193000000Y-72448000D01*
X195000000Y-78000000D02*
X195000000Y-74448000D01*
X180500000Y-62100000D02*
X181900000Y-62100000D01*
X182748943Y-57899000D02*
X178601000Y-57899000D01*
%TD*%
%TA.AperFunction,Conductor*%
%TO.N,Net-(D1-BK)*%
G36*
X177802914Y-53131115D02*
G01*
X178489014Y-53539596D01*
X178491781Y-53541292D01*
X179695094Y-54301046D01*
X179697815Y-54302814D01*
X180880862Y-55093814D01*
X180883462Y-55095603D01*
X182045412Y-55917297D01*
X182048022Y-55919195D01*
X183188013Y-56770972D01*
X183190578Y-56772941D01*
X184150718Y-57530285D01*
X184307920Y-57654283D01*
X184310432Y-57656319D01*
X184577082Y-57878210D01*
X185404301Y-58566577D01*
X185406768Y-58568685D01*
X186476470Y-59507282D01*
X186478837Y-59509415D01*
X187043183Y-60031354D01*
X187523608Y-60475679D01*
X187525962Y-60477914D01*
X188545064Y-61471166D01*
X188547358Y-61473461D01*
X189540121Y-62493043D01*
X189542354Y-62495397D01*
X190508114Y-63540628D01*
X190510285Y-63543041D01*
X191448331Y-64613153D01*
X191450431Y-64615613D01*
X192306977Y-65645942D01*
X192360162Y-65709918D01*
X192362199Y-65712434D01*
X192807421Y-66277432D01*
X193243002Y-66830196D01*
X193244977Y-66832771D01*
X194096212Y-67973181D01*
X194098119Y-67975807D01*
X194919212Y-69138091D01*
X194921050Y-69140766D01*
X195711456Y-70324154D01*
X195713223Y-70326876D01*
X196472387Y-71530538D01*
X196474082Y-71533305D01*
X197156932Y-72681501D01*
X197201494Y-72756430D01*
X197203107Y-72759226D01*
X197495220Y-73281023D01*
X197898257Y-74000962D01*
X197899805Y-74003814D01*
X198562222Y-75263314D01*
X198563695Y-75266206D01*
X199192917Y-76542594D01*
X199194314Y-76545523D01*
X199789942Y-77837987D01*
X199791261Y-77840952D01*
X200352829Y-79148486D01*
X200354071Y-79151484D01*
X200881264Y-80473351D01*
X200882426Y-80476381D01*
X201374821Y-81811519D01*
X201375904Y-81814578D01*
X201833197Y-83162165D01*
X201834200Y-83165252D01*
X202256080Y-84524371D01*
X202257001Y-84527482D01*
X202643161Y-85897140D01*
X202644001Y-85900275D01*
X202994195Y-87279610D01*
X202994952Y-87282766D01*
X203308918Y-88670732D01*
X203309593Y-88673906D01*
X203587142Y-90069677D01*
X203587733Y-90072868D01*
X203828651Y-91475368D01*
X203829159Y-91478573D01*
X204033303Y-92886966D01*
X204033726Y-92890184D01*
X204200937Y-94303380D01*
X204201276Y-94306607D01*
X204331447Y-95723690D01*
X204331702Y-95726925D01*
X204424750Y-97147000D01*
X204424919Y-97150241D01*
X204480771Y-98572181D01*
X204480856Y-98575425D01*
X204491305Y-99373877D01*
X204472500Y-99441169D01*
X204420299Y-99487611D01*
X204367316Y-99499500D01*
X193624501Y-99499500D01*
X193557462Y-99479815D01*
X193511707Y-99427011D01*
X193500501Y-99375500D01*
X193500501Y-99367474D01*
X193481929Y-98728997D01*
X193463718Y-98102915D01*
X193390183Y-96839974D01*
X193279957Y-95579705D01*
X193133135Y-94323173D01*
X192949841Y-93071442D01*
X192730228Y-91825570D01*
X192474484Y-90586610D01*
X192182824Y-89355609D01*
X192034130Y-88800499D01*
X191855499Y-88133624D01*
X191839105Y-88078846D01*
X191492774Y-86921643D01*
X191094968Y-85720737D01*
X190662412Y-84531904D01*
X190659420Y-84524371D01*
X190195480Y-83356171D01*
X190195479Y-83356169D01*
X190195472Y-83356151D01*
X189694545Y-82194471D01*
X189160052Y-81047848D01*
X188877650Y-80485339D01*
X188870301Y-80470701D01*
X188845426Y-80421153D01*
X191199500Y-80421153D01*
X191199500Y-80578846D01*
X191230261Y-80733489D01*
X191230264Y-80733501D01*
X191290602Y-80879172D01*
X191290609Y-80879185D01*
X191378210Y-81010288D01*
X191378213Y-81010292D01*
X191489707Y-81121786D01*
X191489711Y-81121789D01*
X191620814Y-81209390D01*
X191620827Y-81209397D01*
X191766498Y-81269735D01*
X191766503Y-81269737D01*
X191831147Y-81282595D01*
X191921849Y-81300638D01*
X191983760Y-81333023D01*
X191985339Y-81334574D01*
X193363181Y-82712416D01*
X193396666Y-82773739D01*
X193399500Y-82800097D01*
X193399500Y-87420234D01*
X193379815Y-87487273D01*
X193378602Y-87489125D01*
X193290609Y-87620814D01*
X193290602Y-87620827D01*
X193230264Y-87766498D01*
X193230261Y-87766510D01*
X193199500Y-87921153D01*
X193199500Y-88078846D01*
X193230261Y-88233489D01*
X193230264Y-88233501D01*
X193290602Y-88379172D01*
X193290609Y-88379185D01*
X193378210Y-88510288D01*
X193378213Y-88510292D01*
X193489707Y-88621786D01*
X193489711Y-88621789D01*
X193620814Y-88709390D01*
X193620827Y-88709397D01*
X193766498Y-88769735D01*
X193766503Y-88769737D01*
X193921153Y-88800499D01*
X193921156Y-88800500D01*
X193921158Y-88800500D01*
X194078844Y-88800500D01*
X194078845Y-88800499D01*
X194233497Y-88769737D01*
X194379179Y-88709394D01*
X194510289Y-88621789D01*
X194621789Y-88510289D01*
X194709394Y-88379179D01*
X194769737Y-88233497D01*
X194800500Y-88078842D01*
X194800500Y-87921158D01*
X194800500Y-87921155D01*
X194800499Y-87921153D01*
X194769738Y-87766510D01*
X194769737Y-87766503D01*
X194764484Y-87753821D01*
X194709397Y-87620827D01*
X194709390Y-87620814D01*
X194621398Y-87489125D01*
X194600520Y-87422447D01*
X194600500Y-87420234D01*
X194600500Y-82420945D01*
X194600500Y-82420943D01*
X194581357Y-82349500D01*
X194559577Y-82268215D01*
X194519904Y-82199500D01*
X194480520Y-82131284D01*
X194368716Y-82019480D01*
X194364385Y-82015149D01*
X194364374Y-82015139D01*
X192834574Y-80485339D01*
X192801089Y-80424016D01*
X192800638Y-80421849D01*
X192782595Y-80331147D01*
X192769737Y-80266503D01*
X192749685Y-80218092D01*
X192709397Y-80120827D01*
X192709390Y-80120814D01*
X192621789Y-79989711D01*
X192621786Y-79989707D01*
X192510292Y-79878213D01*
X192510288Y-79878210D01*
X192379185Y-79790609D01*
X192379172Y-79790602D01*
X192233501Y-79730264D01*
X192233489Y-79730261D01*
X192078845Y-79699500D01*
X192078842Y-79699500D01*
X191921158Y-79699500D01*
X191921155Y-79699500D01*
X191766510Y-79730261D01*
X191766498Y-79730264D01*
X191620827Y-79790602D01*
X191620814Y-79790609D01*
X191489711Y-79878210D01*
X191489707Y-79878213D01*
X191378213Y-79989707D01*
X191378210Y-79989711D01*
X191290609Y-80120814D01*
X191290602Y-80120827D01*
X191230264Y-80266498D01*
X191230261Y-80266510D01*
X191199500Y-80421153D01*
X188845426Y-80421153D01*
X188592455Y-79917268D01*
X188592446Y-79917250D01*
X187992207Y-78803634D01*
X187359843Y-77707941D01*
X186695887Y-76631098D01*
X186000903Y-75574015D01*
X185275476Y-74537587D01*
X184520222Y-73522689D01*
X184303513Y-73248500D01*
X183735788Y-72530192D01*
X183662448Y-72442751D01*
X183600719Y-72369153D01*
X192199500Y-72369153D01*
X192199500Y-72526846D01*
X192230261Y-72681489D01*
X192230264Y-72681501D01*
X192290602Y-72827172D01*
X192290609Y-72827185D01*
X192378210Y-72958288D01*
X192378213Y-72958292D01*
X192489707Y-73069786D01*
X192489711Y-73069789D01*
X192620814Y-73157390D01*
X192620827Y-73157397D01*
X192766498Y-73217735D01*
X192766503Y-73217737D01*
X192831147Y-73230595D01*
X192921849Y-73248638D01*
X192983760Y-73281023D01*
X192985339Y-73282574D01*
X194363181Y-74660416D01*
X194396666Y-74721739D01*
X194399500Y-74748097D01*
X194399500Y-77913330D01*
X194399499Y-77913348D01*
X194399499Y-78079054D01*
X194399498Y-78079054D01*
X194440423Y-78231785D01*
X194469358Y-78281900D01*
X194469359Y-78281904D01*
X194469360Y-78281904D01*
X194519479Y-78368714D01*
X194519481Y-78368717D01*
X194638349Y-78487585D01*
X194638355Y-78487590D01*
X196863181Y-80712416D01*
X196896666Y-80773739D01*
X196899500Y-80800097D01*
X196899500Y-82420234D01*
X196879815Y-82487273D01*
X196878602Y-82489125D01*
X196790609Y-82620814D01*
X196790602Y-82620827D01*
X196730264Y-82766498D01*
X196730261Y-82766510D01*
X196699500Y-82921153D01*
X196699500Y-83078846D01*
X196730261Y-83233489D01*
X196730264Y-83233501D01*
X196790602Y-83379172D01*
X196790609Y-83379185D01*
X196878210Y-83510288D01*
X196878213Y-83510292D01*
X196989707Y-83621786D01*
X196989711Y-83621789D01*
X197120814Y-83709390D01*
X197120827Y-83709397D01*
X197266498Y-83769735D01*
X197266503Y-83769737D01*
X197421153Y-83800499D01*
X197421156Y-83800500D01*
X197421158Y-83800500D01*
X197578844Y-83800500D01*
X197578845Y-83800499D01*
X197733497Y-83769737D01*
X197879179Y-83709394D01*
X198010289Y-83621789D01*
X198121789Y-83510289D01*
X198209394Y-83379179D01*
X198269737Y-83233497D01*
X198300500Y-83078842D01*
X198300500Y-82921158D01*
X198300500Y-82921155D01*
X198300499Y-82921153D01*
X198269738Y-82766510D01*
X198269737Y-82766503D01*
X198247334Y-82712416D01*
X198209397Y-82620827D01*
X198209390Y-82620814D01*
X198121398Y-82489125D01*
X198100520Y-82422447D01*
X198100500Y-82420234D01*
X198100500Y-80589059D01*
X198100501Y-80589046D01*
X198100501Y-80420945D01*
X198100501Y-80420943D01*
X198059577Y-80268215D01*
X198030639Y-80218095D01*
X197980520Y-80131284D01*
X197868716Y-80019480D01*
X197868715Y-80019479D01*
X197864385Y-80015149D01*
X197864374Y-80015139D01*
X195636819Y-77787584D01*
X195603334Y-77726261D01*
X195600500Y-77699903D01*
X195600500Y-74368945D01*
X195600500Y-74368943D01*
X195559577Y-74216216D01*
X195559577Y-74216215D01*
X195546647Y-74193821D01*
X195528986Y-74163230D01*
X195528986Y-74163229D01*
X195480524Y-74079290D01*
X195480521Y-74079286D01*
X195480520Y-74079284D01*
X195368716Y-73967480D01*
X195368715Y-73967479D01*
X195364385Y-73963149D01*
X195364374Y-73963139D01*
X193834574Y-72433339D01*
X193801089Y-72372016D01*
X193800638Y-72369849D01*
X193769738Y-72214510D01*
X193769737Y-72214503D01*
X193769735Y-72214498D01*
X193709397Y-72068827D01*
X193709390Y-72068814D01*
X193621789Y-71937711D01*
X193621786Y-71937707D01*
X193510292Y-71826213D01*
X193510288Y-71826210D01*
X193379185Y-71738609D01*
X193379172Y-71738602D01*
X193233501Y-71678264D01*
X193233489Y-71678261D01*
X193078845Y-71647500D01*
X193078842Y-71647500D01*
X192921158Y-71647500D01*
X192921155Y-71647500D01*
X192766510Y-71678261D01*
X192766498Y-71678264D01*
X192620827Y-71738602D01*
X192620814Y-71738609D01*
X192489711Y-71826210D01*
X192489707Y-71826213D01*
X192378213Y-71937707D01*
X192378210Y-71937711D01*
X192290609Y-72068814D01*
X192290602Y-72068827D01*
X192230264Y-72214498D01*
X192230261Y-72214510D01*
X192199500Y-72369153D01*
X183600719Y-72369153D01*
X183071857Y-71738606D01*
X182922807Y-71560898D01*
X182922795Y-71560884D01*
X182082004Y-70615671D01*
X181648028Y-70155470D01*
X181214060Y-69695277D01*
X180807822Y-69288844D01*
X180319727Y-68800514D01*
X179399778Y-67932154D01*
X179399759Y-67932136D01*
X178454929Y-67090872D01*
X178454924Y-67090867D01*
X178454913Y-67090858D01*
X177486036Y-66277432D01*
X176493910Y-65492516D01*
X175938582Y-65078844D01*
X175479372Y-64736771D01*
X175027593Y-64420234D01*
X174443292Y-64010845D01*
X173728832Y-63540628D01*
X173386544Y-63315353D01*
X172714431Y-62900499D01*
X172310026Y-62650884D01*
X172303057Y-62646858D01*
X172254858Y-62596276D01*
X172241657Y-62527664D01*
X172257725Y-62477457D01*
X174601366Y-58421153D01*
X177199500Y-58421153D01*
X177199500Y-58578846D01*
X177230261Y-58733489D01*
X177230264Y-58733501D01*
X177290602Y-58879172D01*
X177290609Y-58879185D01*
X177378210Y-59010288D01*
X177378213Y-59010292D01*
X177489707Y-59121786D01*
X177489711Y-59121789D01*
X177620814Y-59209390D01*
X177620827Y-59209397D01*
X177720676Y-59250755D01*
X177766503Y-59269737D01*
X177921153Y-59300499D01*
X177921156Y-59300500D01*
X177921158Y-59300500D01*
X178078844Y-59300500D01*
X178078845Y-59300499D01*
X178233497Y-59269737D01*
X178379179Y-59209394D01*
X178510289Y-59121789D01*
X178621789Y-59010289D01*
X178709394Y-58879179D01*
X178769737Y-58733497D01*
X178796429Y-58599309D01*
X178828814Y-58537398D01*
X178889529Y-58502824D01*
X178918046Y-58499500D01*
X181351903Y-58499500D01*
X181418942Y-58519185D01*
X181464697Y-58571989D01*
X181474641Y-58641147D01*
X181445616Y-58704703D01*
X181439584Y-58711181D01*
X178631286Y-61519478D01*
X178519481Y-61631282D01*
X178519479Y-61631285D01*
X178469361Y-61718094D01*
X178469359Y-61718096D01*
X178440425Y-61768209D01*
X178440424Y-61768210D01*
X178440423Y-61768215D01*
X178399499Y-61920943D01*
X178399499Y-61920945D01*
X178399499Y-62089046D01*
X178399500Y-62089059D01*
X178399500Y-64420234D01*
X178379815Y-64487273D01*
X178378602Y-64489125D01*
X178290609Y-64620814D01*
X178290602Y-64620827D01*
X178230264Y-64766498D01*
X178230261Y-64766510D01*
X178199500Y-64921153D01*
X178199500Y-65078846D01*
X178230261Y-65233489D01*
X178230264Y-65233501D01*
X178290602Y-65379172D01*
X178290609Y-65379185D01*
X178378210Y-65510288D01*
X178378213Y-65510292D01*
X178489707Y-65621786D01*
X178489711Y-65621789D01*
X178620814Y-65709390D01*
X178620827Y-65709397D01*
X178766498Y-65769735D01*
X178766503Y-65769737D01*
X178921153Y-65800499D01*
X178921156Y-65800500D01*
X178921158Y-65800500D01*
X179078844Y-65800500D01*
X179078845Y-65800499D01*
X179233497Y-65769737D01*
X179379179Y-65709394D01*
X179510289Y-65621789D01*
X179621789Y-65510289D01*
X179709394Y-65379179D01*
X179769737Y-65233497D01*
X179800500Y-65078842D01*
X179800500Y-64921158D01*
X179800500Y-64921155D01*
X179800499Y-64921153D01*
X184199500Y-64921153D01*
X184199500Y-65078846D01*
X184230261Y-65233489D01*
X184230264Y-65233501D01*
X184290602Y-65379172D01*
X184290609Y-65379185D01*
X184378210Y-65510288D01*
X184378213Y-65510292D01*
X184489707Y-65621786D01*
X184489711Y-65621789D01*
X184620814Y-65709390D01*
X184620827Y-65709397D01*
X184766498Y-65769735D01*
X184766503Y-65769737D01*
X184831147Y-65782595D01*
X184921849Y-65800638D01*
X184983760Y-65833023D01*
X184985339Y-65834574D01*
X188165425Y-69014660D01*
X188198910Y-69075983D01*
X188199361Y-69078149D01*
X188230261Y-69233491D01*
X188230264Y-69233501D01*
X188290602Y-69379172D01*
X188290609Y-69379185D01*
X188378210Y-69510288D01*
X188378213Y-69510292D01*
X188489707Y-69621786D01*
X188489711Y-69621789D01*
X188620814Y-69709390D01*
X188620827Y-69709397D01*
X188766498Y-69769735D01*
X188766503Y-69769737D01*
X188921153Y-69800499D01*
X188921156Y-69800500D01*
X188921158Y-69800500D01*
X189078844Y-69800500D01*
X189078845Y-69800499D01*
X189233497Y-69769737D01*
X189379179Y-69709394D01*
X189510289Y-69621789D01*
X189621789Y-69510289D01*
X189709394Y-69379179D01*
X189769737Y-69233497D01*
X189800500Y-69078842D01*
X189800500Y-68921158D01*
X189800500Y-68921155D01*
X189800499Y-68921153D01*
X189769737Y-68766503D01*
X189769735Y-68766498D01*
X189709397Y-68620827D01*
X189709390Y-68620814D01*
X189621789Y-68489711D01*
X189621786Y-68489707D01*
X189510292Y-68378213D01*
X189510288Y-68378210D01*
X189379185Y-68290609D01*
X189379172Y-68290602D01*
X189233501Y-68230264D01*
X189233491Y-68230261D01*
X189078149Y-68199361D01*
X189016238Y-68166976D01*
X189014660Y-68165425D01*
X185834574Y-64985339D01*
X185801089Y-64924016D01*
X185800638Y-64921849D01*
X185769738Y-64766510D01*
X185769737Y-64766503D01*
X185757422Y-64736771D01*
X185709397Y-64620827D01*
X185709390Y-64620814D01*
X185621789Y-64489711D01*
X185621786Y-64489707D01*
X185510292Y-64378213D01*
X185510288Y-64378210D01*
X185379185Y-64290609D01*
X185379172Y-64290602D01*
X185233501Y-64230264D01*
X185233489Y-64230261D01*
X185078845Y-64199500D01*
X185078842Y-64199500D01*
X184921158Y-64199500D01*
X184921155Y-64199500D01*
X184766510Y-64230261D01*
X184766498Y-64230264D01*
X184620827Y-64290602D01*
X184620814Y-64290609D01*
X184489711Y-64378210D01*
X184489707Y-64378213D01*
X184378213Y-64489707D01*
X184378210Y-64489711D01*
X184290609Y-64620814D01*
X184290602Y-64620827D01*
X184230264Y-64766498D01*
X184230261Y-64766510D01*
X184199500Y-64921153D01*
X179800499Y-64921153D01*
X179769738Y-64766510D01*
X179769737Y-64766503D01*
X179757422Y-64736771D01*
X179709397Y-64620827D01*
X179709390Y-64620814D01*
X179621398Y-64489125D01*
X179600520Y-64422447D01*
X179600500Y-64420234D01*
X179600500Y-62603439D01*
X179620185Y-62536400D01*
X179672989Y-62490645D01*
X179742147Y-62480701D01*
X179805703Y-62509726D01*
X179827602Y-62534548D01*
X179878210Y-62610288D01*
X179878213Y-62610292D01*
X179989707Y-62721786D01*
X179989711Y-62721789D01*
X180120814Y-62809390D01*
X180120827Y-62809397D01*
X180266498Y-62869735D01*
X180266503Y-62869737D01*
X180421153Y-62900499D01*
X180421156Y-62900500D01*
X180421158Y-62900500D01*
X180578844Y-62900500D01*
X180578845Y-62900499D01*
X180733497Y-62869737D01*
X180879179Y-62809394D01*
X180879185Y-62809390D01*
X181010875Y-62721398D01*
X181077553Y-62700520D01*
X181079766Y-62700500D01*
X181813331Y-62700500D01*
X181813347Y-62700501D01*
X181820943Y-62700501D01*
X181979054Y-62700501D01*
X181979057Y-62700501D01*
X182131785Y-62659577D01*
X182181904Y-62630639D01*
X182268716Y-62580520D01*
X182380520Y-62468716D01*
X182380520Y-62468714D01*
X182390728Y-62458507D01*
X182390730Y-62458504D01*
X183459506Y-61389728D01*
X183459511Y-61389724D01*
X183469714Y-61379520D01*
X183469716Y-61379520D01*
X183581520Y-61267716D01*
X183660577Y-61130784D01*
X183701500Y-60978057D01*
X183701500Y-58340117D01*
X183701501Y-58340104D01*
X183701501Y-58172002D01*
X183701501Y-58172000D01*
X183660577Y-58019272D01*
X183581520Y-57882341D01*
X183229464Y-57530285D01*
X183229463Y-57530284D01*
X183117659Y-57418480D01*
X183030847Y-57368360D01*
X183030847Y-57368359D01*
X183030843Y-57368358D01*
X182980728Y-57339423D01*
X182828000Y-57298499D01*
X182669886Y-57298499D01*
X182662290Y-57298499D01*
X182662274Y-57298500D01*
X178521940Y-57298500D01*
X178481019Y-57309464D01*
X178481019Y-57309465D01*
X178443751Y-57319451D01*
X178369214Y-57339423D01*
X178369209Y-57339426D01*
X178232290Y-57418475D01*
X178232282Y-57418481D01*
X178120480Y-57530283D01*
X178120480Y-57530284D01*
X178120478Y-57530286D01*
X178045343Y-57605421D01*
X177985338Y-57665426D01*
X177924015Y-57698910D01*
X177921849Y-57699361D01*
X177766508Y-57730261D01*
X177766498Y-57730264D01*
X177620827Y-57790602D01*
X177620814Y-57790609D01*
X177489711Y-57878210D01*
X177489707Y-57878213D01*
X177378213Y-57989707D01*
X177378210Y-57989711D01*
X177290609Y-58120814D01*
X177290602Y-58120827D01*
X177230264Y-58266498D01*
X177230261Y-58266510D01*
X177199500Y-58421153D01*
X174601366Y-58421153D01*
X177632114Y-53175625D01*
X177682695Y-53127427D01*
X177751306Y-53114226D01*
X177802914Y-53131115D01*
G37*
%TD.AperFunction*%
%TD*%
M02*
