%TF.GenerationSoftware,KiCad,Pcbnew,9.0.6*%
%TF.CreationDate,2025-12-03T11:59:54+00:00*%
%TF.ProjectId,SLSS LightRail,534c5353-204c-4696-9768-745261696c2e,rev?*%
%TF.SameCoordinates,Original*%
%TF.FileFunction,Soldermask,Top*%
%TF.FilePolarity,Negative*%
%FSLAX46Y46*%
G04 Gerber Fmt 4.6, Leading zero omitted, Abs format (unit mm)*
G04 Created by KiCad (PCBNEW 9.0.6) date 2025-12-03 11:59:54*
%MOMM*%
%LPD*%
G01*
G04 APERTURE LIST*
G04 Aperture macros list*
%AMRoundRect*
0 Rectangle with rounded corners*
0 $1 Rounding radius*
0 $2 $3 $4 $5 $6 $7 $8 $9 X,Y pos of 4 corners*
0 Add a 4 corners polygon primitive as box body*
4,1,4,$2,$3,$4,$5,$6,$7,$8,$9,$2,$3,0*
0 Add four circle primitives for the rounded corners*
1,1,$1+$1,$2,$3*
1,1,$1+$1,$4,$5*
1,1,$1+$1,$6,$7*
1,1,$1+$1,$8,$9*
0 Add four rect primitives between the rounded corners*
20,1,$1+$1,$2,$3,$4,$5,0*
20,1,$1+$1,$4,$5,$6,$7,0*
20,1,$1+$1,$6,$7,$8,$9,0*
20,1,$1+$1,$8,$9,$2,$3,0*%
G04 Aperture macros list end*
%ADD10RoundRect,0.250000X0.625000X-0.312500X0.625000X0.312500X-0.625000X0.312500X-0.625000X-0.312500X0*%
%ADD11R,1.100000X2.000000*%
%ADD12RoundRect,0.250000X-0.625000X0.312500X-0.625000X-0.312500X0.625000X-0.312500X0.625000X0.312500X0*%
%ADD13RoundRect,0.250000X-0.312500X-0.625000X0.312500X-0.625000X0.312500X0.625000X-0.312500X0.625000X0*%
%ADD14RoundRect,0.150000X-0.531218X0.479904X-0.681218X0.220096X0.531218X-0.479904X0.681218X-0.220096X0*%
%ADD15RoundRect,0.250000X-0.827628X0.766506X-1.077628X0.333494X0.827628X-0.766506X1.077628X-0.333494X0*%
G04 APERTURE END LIST*
D10*
%TO.C,R4*%
X198000000Y-91500000D03*
X198000000Y-88575000D03*
%TD*%
D11*
%TO.C,D2*%
X193800000Y-85400000D03*
X195500000Y-85400000D03*
X197200000Y-85400000D03*
X197200000Y-80600000D03*
X195500000Y-80600000D03*
X193800000Y-80600000D03*
%TD*%
%TO.C,D1*%
X196800000Y-98500000D03*
X198500000Y-98500000D03*
X200200000Y-98500000D03*
X200200000Y-93700000D03*
X198500000Y-93700000D03*
X196800000Y-93700000D03*
%TD*%
D12*
%TO.C,R7*%
X200500000Y-88575000D03*
X200500000Y-91500000D03*
%TD*%
D13*
%TO.C,R9*%
X182575000Y-61000000D03*
X185500000Y-61000000D03*
%TD*%
%TO.C,R3*%
X180575000Y-66000000D03*
X183500000Y-66000000D03*
%TD*%
%TO.C,R6*%
X182575000Y-63500000D03*
X185500000Y-63500000D03*
%TD*%
D11*
%TO.C,D3*%
X186500000Y-71500000D03*
X188200000Y-71500000D03*
X189900000Y-71500000D03*
X189900000Y-66700000D03*
X188200000Y-66700000D03*
X186500000Y-66700000D03*
%TD*%
D14*
%TO.C,J1*%
X180374998Y-58752404D03*
X179749999Y-59834936D03*
X179124998Y-60917468D03*
X178500000Y-62000000D03*
D15*
X178528718Y-55550257D03*
X174803718Y-62002147D03*
%TD*%
D12*
%TO.C,R8*%
X195500000Y-74075000D03*
X195500000Y-77000000D03*
%TD*%
%TO.C,R2*%
X190500000Y-74075000D03*
X190500000Y-77000000D03*
%TD*%
%TO.C,R5*%
X193000000Y-74112500D03*
X193000000Y-77037500D03*
%TD*%
%TO.C,R1*%
X195500000Y-88575000D03*
X195500000Y-91500000D03*
%TD*%
M02*
