%TF.GenerationSoftware,KiCad,Pcbnew,9.0.6*%
%TF.CreationDate,2025-12-03T11:59:54+00:00*%
%TF.ProjectId,SLSS LightRail,534c5353-204c-4696-9768-745261696c2e,rev?*%
%TF.SameCoordinates,Original*%
%TF.FileFunction,Legend,Top*%
%TF.FilePolarity,Positive*%
%FSLAX46Y46*%
G04 Gerber Fmt 4.6, Leading zero omitted, Abs format (unit mm)*
G04 Created by KiCad (PCBNEW 9.0.6) date 2025-12-03 11:59:54*
%MOMM*%
%LPD*%
G01*
G04 APERTURE LIST*
%ADD10C,0.150000*%
%ADD11C,0.120000*%
G04 APERTURE END LIST*
D10*
X194833333Y-93454819D02*
X194500000Y-92978628D01*
X194261905Y-93454819D02*
X194261905Y-92454819D01*
X194261905Y-92454819D02*
X194642857Y-92454819D01*
X194642857Y-92454819D02*
X194738095Y-92502438D01*
X194738095Y-92502438D02*
X194785714Y-92550057D01*
X194785714Y-92550057D02*
X194833333Y-92645295D01*
X194833333Y-92645295D02*
X194833333Y-92788152D01*
X194833333Y-92788152D02*
X194785714Y-92883390D01*
X194785714Y-92883390D02*
X194738095Y-92931009D01*
X194738095Y-92931009D02*
X194642857Y-92978628D01*
X194642857Y-92978628D02*
X194261905Y-92978628D01*
X195690476Y-92788152D02*
X195690476Y-93454819D01*
X195452381Y-92407200D02*
X195214286Y-93121485D01*
X195214286Y-93121485D02*
X195833333Y-93121485D01*
X192454819Y-83738094D02*
X191454819Y-83738094D01*
X191454819Y-83738094D02*
X191454819Y-83499999D01*
X191454819Y-83499999D02*
X191502438Y-83357142D01*
X191502438Y-83357142D02*
X191597676Y-83261904D01*
X191597676Y-83261904D02*
X191692914Y-83214285D01*
X191692914Y-83214285D02*
X191883390Y-83166666D01*
X191883390Y-83166666D02*
X192026247Y-83166666D01*
X192026247Y-83166666D02*
X192216723Y-83214285D01*
X192216723Y-83214285D02*
X192311961Y-83261904D01*
X192311961Y-83261904D02*
X192407200Y-83357142D01*
X192407200Y-83357142D02*
X192454819Y-83499999D01*
X192454819Y-83499999D02*
X192454819Y-83738094D01*
X191550057Y-82785713D02*
X191502438Y-82738094D01*
X191502438Y-82738094D02*
X191454819Y-82642856D01*
X191454819Y-82642856D02*
X191454819Y-82404761D01*
X191454819Y-82404761D02*
X191502438Y-82309523D01*
X191502438Y-82309523D02*
X191550057Y-82261904D01*
X191550057Y-82261904D02*
X191645295Y-82214285D01*
X191645295Y-82214285D02*
X191740533Y-82214285D01*
X191740533Y-82214285D02*
X191883390Y-82261904D01*
X191883390Y-82261904D02*
X192454819Y-82833332D01*
X192454819Y-82833332D02*
X192454819Y-82214285D01*
X195454819Y-95938094D02*
X194454819Y-95938094D01*
X194454819Y-95938094D02*
X194454819Y-95699999D01*
X194454819Y-95699999D02*
X194502438Y-95557142D01*
X194502438Y-95557142D02*
X194597676Y-95461904D01*
X194597676Y-95461904D02*
X194692914Y-95414285D01*
X194692914Y-95414285D02*
X194883390Y-95366666D01*
X194883390Y-95366666D02*
X195026247Y-95366666D01*
X195026247Y-95366666D02*
X195216723Y-95414285D01*
X195216723Y-95414285D02*
X195311961Y-95461904D01*
X195311961Y-95461904D02*
X195407200Y-95557142D01*
X195407200Y-95557142D02*
X195454819Y-95699999D01*
X195454819Y-95699999D02*
X195454819Y-95938094D01*
X195454819Y-94414285D02*
X195454819Y-94985713D01*
X195454819Y-94699999D02*
X194454819Y-94699999D01*
X194454819Y-94699999D02*
X194597676Y-94795237D01*
X194597676Y-94795237D02*
X194692914Y-94890475D01*
X194692914Y-94890475D02*
X194740533Y-94985713D01*
X202333333Y-91954819D02*
X202000000Y-91478628D01*
X201761905Y-91954819D02*
X201761905Y-90954819D01*
X201761905Y-90954819D02*
X202142857Y-90954819D01*
X202142857Y-90954819D02*
X202238095Y-91002438D01*
X202238095Y-91002438D02*
X202285714Y-91050057D01*
X202285714Y-91050057D02*
X202333333Y-91145295D01*
X202333333Y-91145295D02*
X202333333Y-91288152D01*
X202333333Y-91288152D02*
X202285714Y-91383390D01*
X202285714Y-91383390D02*
X202238095Y-91431009D01*
X202238095Y-91431009D02*
X202142857Y-91478628D01*
X202142857Y-91478628D02*
X201761905Y-91478628D01*
X202666667Y-90954819D02*
X203333333Y-90954819D01*
X203333333Y-90954819D02*
X202904762Y-91954819D01*
X183833333Y-59454819D02*
X183500000Y-58978628D01*
X183261905Y-59454819D02*
X183261905Y-58454819D01*
X183261905Y-58454819D02*
X183642857Y-58454819D01*
X183642857Y-58454819D02*
X183738095Y-58502438D01*
X183738095Y-58502438D02*
X183785714Y-58550057D01*
X183785714Y-58550057D02*
X183833333Y-58645295D01*
X183833333Y-58645295D02*
X183833333Y-58788152D01*
X183833333Y-58788152D02*
X183785714Y-58883390D01*
X183785714Y-58883390D02*
X183738095Y-58931009D01*
X183738095Y-58931009D02*
X183642857Y-58978628D01*
X183642857Y-58978628D02*
X183261905Y-58978628D01*
X184309524Y-59454819D02*
X184500000Y-59454819D01*
X184500000Y-59454819D02*
X184595238Y-59407200D01*
X184595238Y-59407200D02*
X184642857Y-59359580D01*
X184642857Y-59359580D02*
X184738095Y-59216723D01*
X184738095Y-59216723D02*
X184785714Y-59026247D01*
X184785714Y-59026247D02*
X184785714Y-58645295D01*
X184785714Y-58645295D02*
X184738095Y-58550057D01*
X184738095Y-58550057D02*
X184690476Y-58502438D01*
X184690476Y-58502438D02*
X184595238Y-58454819D01*
X184595238Y-58454819D02*
X184404762Y-58454819D01*
X184404762Y-58454819D02*
X184309524Y-58502438D01*
X184309524Y-58502438D02*
X184261905Y-58550057D01*
X184261905Y-58550057D02*
X184214286Y-58645295D01*
X184214286Y-58645295D02*
X184214286Y-58883390D01*
X184214286Y-58883390D02*
X184261905Y-58978628D01*
X184261905Y-58978628D02*
X184309524Y-59026247D01*
X184309524Y-59026247D02*
X184404762Y-59073866D01*
X184404762Y-59073866D02*
X184595238Y-59073866D01*
X184595238Y-59073866D02*
X184690476Y-59026247D01*
X184690476Y-59026247D02*
X184738095Y-58978628D01*
X184738095Y-58978628D02*
X184785714Y-58883390D01*
X186833333Y-64954819D02*
X186500000Y-64478628D01*
X186261905Y-64954819D02*
X186261905Y-63954819D01*
X186261905Y-63954819D02*
X186642857Y-63954819D01*
X186642857Y-63954819D02*
X186738095Y-64002438D01*
X186738095Y-64002438D02*
X186785714Y-64050057D01*
X186785714Y-64050057D02*
X186833333Y-64145295D01*
X186833333Y-64145295D02*
X186833333Y-64288152D01*
X186833333Y-64288152D02*
X186785714Y-64383390D01*
X186785714Y-64383390D02*
X186738095Y-64431009D01*
X186738095Y-64431009D02*
X186642857Y-64478628D01*
X186642857Y-64478628D02*
X186261905Y-64478628D01*
X187166667Y-63954819D02*
X187785714Y-63954819D01*
X187785714Y-63954819D02*
X187452381Y-64335771D01*
X187452381Y-64335771D02*
X187595238Y-64335771D01*
X187595238Y-64335771D02*
X187690476Y-64383390D01*
X187690476Y-64383390D02*
X187738095Y-64431009D01*
X187738095Y-64431009D02*
X187785714Y-64526247D01*
X187785714Y-64526247D02*
X187785714Y-64764342D01*
X187785714Y-64764342D02*
X187738095Y-64859580D01*
X187738095Y-64859580D02*
X187690476Y-64907200D01*
X187690476Y-64907200D02*
X187595238Y-64954819D01*
X187595238Y-64954819D02*
X187309524Y-64954819D01*
X187309524Y-64954819D02*
X187214286Y-64907200D01*
X187214286Y-64907200D02*
X187166667Y-64859580D01*
X187333333Y-63454819D02*
X187000000Y-62978628D01*
X186761905Y-63454819D02*
X186761905Y-62454819D01*
X186761905Y-62454819D02*
X187142857Y-62454819D01*
X187142857Y-62454819D02*
X187238095Y-62502438D01*
X187238095Y-62502438D02*
X187285714Y-62550057D01*
X187285714Y-62550057D02*
X187333333Y-62645295D01*
X187333333Y-62645295D02*
X187333333Y-62788152D01*
X187333333Y-62788152D02*
X187285714Y-62883390D01*
X187285714Y-62883390D02*
X187238095Y-62931009D01*
X187238095Y-62931009D02*
X187142857Y-62978628D01*
X187142857Y-62978628D02*
X186761905Y-62978628D01*
X188190476Y-62454819D02*
X188000000Y-62454819D01*
X188000000Y-62454819D02*
X187904762Y-62502438D01*
X187904762Y-62502438D02*
X187857143Y-62550057D01*
X187857143Y-62550057D02*
X187761905Y-62692914D01*
X187761905Y-62692914D02*
X187714286Y-62883390D01*
X187714286Y-62883390D02*
X187714286Y-63264342D01*
X187714286Y-63264342D02*
X187761905Y-63359580D01*
X187761905Y-63359580D02*
X187809524Y-63407200D01*
X187809524Y-63407200D02*
X187904762Y-63454819D01*
X187904762Y-63454819D02*
X188095238Y-63454819D01*
X188095238Y-63454819D02*
X188190476Y-63407200D01*
X188190476Y-63407200D02*
X188238095Y-63359580D01*
X188238095Y-63359580D02*
X188285714Y-63264342D01*
X188285714Y-63264342D02*
X188285714Y-63026247D01*
X188285714Y-63026247D02*
X188238095Y-62931009D01*
X188238095Y-62931009D02*
X188190476Y-62883390D01*
X188190476Y-62883390D02*
X188095238Y-62835771D01*
X188095238Y-62835771D02*
X187904762Y-62835771D01*
X187904762Y-62835771D02*
X187809524Y-62883390D01*
X187809524Y-62883390D02*
X187761905Y-62931009D01*
X187761905Y-62931009D02*
X187714286Y-63026247D01*
X185154819Y-69838094D02*
X184154819Y-69838094D01*
X184154819Y-69838094D02*
X184154819Y-69599999D01*
X184154819Y-69599999D02*
X184202438Y-69457142D01*
X184202438Y-69457142D02*
X184297676Y-69361904D01*
X184297676Y-69361904D02*
X184392914Y-69314285D01*
X184392914Y-69314285D02*
X184583390Y-69266666D01*
X184583390Y-69266666D02*
X184726247Y-69266666D01*
X184726247Y-69266666D02*
X184916723Y-69314285D01*
X184916723Y-69314285D02*
X185011961Y-69361904D01*
X185011961Y-69361904D02*
X185107200Y-69457142D01*
X185107200Y-69457142D02*
X185154819Y-69599999D01*
X185154819Y-69599999D02*
X185154819Y-69838094D01*
X184154819Y-68933332D02*
X184154819Y-68314285D01*
X184154819Y-68314285D02*
X184535771Y-68647618D01*
X184535771Y-68647618D02*
X184535771Y-68504761D01*
X184535771Y-68504761D02*
X184583390Y-68409523D01*
X184583390Y-68409523D02*
X184631009Y-68361904D01*
X184631009Y-68361904D02*
X184726247Y-68314285D01*
X184726247Y-68314285D02*
X184964342Y-68314285D01*
X184964342Y-68314285D02*
X185059580Y-68361904D01*
X185059580Y-68361904D02*
X185107200Y-68409523D01*
X185107200Y-68409523D02*
X185154819Y-68504761D01*
X185154819Y-68504761D02*
X185154819Y-68790475D01*
X185154819Y-68790475D02*
X185107200Y-68885713D01*
X185107200Y-68885713D02*
X185059580Y-68933332D01*
X177861192Y-64016084D02*
X178479782Y-64373227D01*
X178479782Y-64373227D02*
X178579690Y-64485895D01*
X178579690Y-64485895D02*
X178614550Y-64615993D01*
X178614550Y-64615993D02*
X178584360Y-64763520D01*
X178584360Y-64763520D02*
X178536741Y-64845999D01*
X179227218Y-63650059D02*
X178941503Y-64144930D01*
X179084361Y-63897495D02*
X178218335Y-63397495D01*
X178218335Y-63397495D02*
X178294434Y-63551402D01*
X178294434Y-63551402D02*
X178329294Y-63681499D01*
X178329294Y-63681499D02*
X178322914Y-63787787D01*
X195333333Y-78954819D02*
X195000000Y-78478628D01*
X194761905Y-78954819D02*
X194761905Y-77954819D01*
X194761905Y-77954819D02*
X195142857Y-77954819D01*
X195142857Y-77954819D02*
X195238095Y-78002438D01*
X195238095Y-78002438D02*
X195285714Y-78050057D01*
X195285714Y-78050057D02*
X195333333Y-78145295D01*
X195333333Y-78145295D02*
X195333333Y-78288152D01*
X195333333Y-78288152D02*
X195285714Y-78383390D01*
X195285714Y-78383390D02*
X195238095Y-78431009D01*
X195238095Y-78431009D02*
X195142857Y-78478628D01*
X195142857Y-78478628D02*
X194761905Y-78478628D01*
X195904762Y-78383390D02*
X195809524Y-78335771D01*
X195809524Y-78335771D02*
X195761905Y-78288152D01*
X195761905Y-78288152D02*
X195714286Y-78192914D01*
X195714286Y-78192914D02*
X195714286Y-78145295D01*
X195714286Y-78145295D02*
X195761905Y-78050057D01*
X195761905Y-78050057D02*
X195809524Y-78002438D01*
X195809524Y-78002438D02*
X195904762Y-77954819D01*
X195904762Y-77954819D02*
X196095238Y-77954819D01*
X196095238Y-77954819D02*
X196190476Y-78002438D01*
X196190476Y-78002438D02*
X196238095Y-78050057D01*
X196238095Y-78050057D02*
X196285714Y-78145295D01*
X196285714Y-78145295D02*
X196285714Y-78192914D01*
X196285714Y-78192914D02*
X196238095Y-78288152D01*
X196238095Y-78288152D02*
X196190476Y-78335771D01*
X196190476Y-78335771D02*
X196095238Y-78383390D01*
X196095238Y-78383390D02*
X195904762Y-78383390D01*
X195904762Y-78383390D02*
X195809524Y-78431009D01*
X195809524Y-78431009D02*
X195761905Y-78478628D01*
X195761905Y-78478628D02*
X195714286Y-78573866D01*
X195714286Y-78573866D02*
X195714286Y-78764342D01*
X195714286Y-78764342D02*
X195761905Y-78859580D01*
X195761905Y-78859580D02*
X195809524Y-78907200D01*
X195809524Y-78907200D02*
X195904762Y-78954819D01*
X195904762Y-78954819D02*
X196095238Y-78954819D01*
X196095238Y-78954819D02*
X196190476Y-78907200D01*
X196190476Y-78907200D02*
X196238095Y-78859580D01*
X196238095Y-78859580D02*
X196285714Y-78764342D01*
X196285714Y-78764342D02*
X196285714Y-78573866D01*
X196285714Y-78573866D02*
X196238095Y-78478628D01*
X196238095Y-78478628D02*
X196190476Y-78431009D01*
X196190476Y-78431009D02*
X196095238Y-78383390D01*
X190333333Y-78954819D02*
X190000000Y-78478628D01*
X189761905Y-78954819D02*
X189761905Y-77954819D01*
X189761905Y-77954819D02*
X190142857Y-77954819D01*
X190142857Y-77954819D02*
X190238095Y-78002438D01*
X190238095Y-78002438D02*
X190285714Y-78050057D01*
X190285714Y-78050057D02*
X190333333Y-78145295D01*
X190333333Y-78145295D02*
X190333333Y-78288152D01*
X190333333Y-78288152D02*
X190285714Y-78383390D01*
X190285714Y-78383390D02*
X190238095Y-78431009D01*
X190238095Y-78431009D02*
X190142857Y-78478628D01*
X190142857Y-78478628D02*
X189761905Y-78478628D01*
X190714286Y-78050057D02*
X190761905Y-78002438D01*
X190761905Y-78002438D02*
X190857143Y-77954819D01*
X190857143Y-77954819D02*
X191095238Y-77954819D01*
X191095238Y-77954819D02*
X191190476Y-78002438D01*
X191190476Y-78002438D02*
X191238095Y-78050057D01*
X191238095Y-78050057D02*
X191285714Y-78145295D01*
X191285714Y-78145295D02*
X191285714Y-78240533D01*
X191285714Y-78240533D02*
X191238095Y-78383390D01*
X191238095Y-78383390D02*
X190666667Y-78954819D01*
X190666667Y-78954819D02*
X191285714Y-78954819D01*
X192833333Y-78954819D02*
X192500000Y-78478628D01*
X192261905Y-78954819D02*
X192261905Y-77954819D01*
X192261905Y-77954819D02*
X192642857Y-77954819D01*
X192642857Y-77954819D02*
X192738095Y-78002438D01*
X192738095Y-78002438D02*
X192785714Y-78050057D01*
X192785714Y-78050057D02*
X192833333Y-78145295D01*
X192833333Y-78145295D02*
X192833333Y-78288152D01*
X192833333Y-78288152D02*
X192785714Y-78383390D01*
X192785714Y-78383390D02*
X192738095Y-78431009D01*
X192738095Y-78431009D02*
X192642857Y-78478628D01*
X192642857Y-78478628D02*
X192261905Y-78478628D01*
X193738095Y-77954819D02*
X193261905Y-77954819D01*
X193261905Y-77954819D02*
X193214286Y-78431009D01*
X193214286Y-78431009D02*
X193261905Y-78383390D01*
X193261905Y-78383390D02*
X193357143Y-78335771D01*
X193357143Y-78335771D02*
X193595238Y-78335771D01*
X193595238Y-78335771D02*
X193690476Y-78383390D01*
X193690476Y-78383390D02*
X193738095Y-78431009D01*
X193738095Y-78431009D02*
X193785714Y-78526247D01*
X193785714Y-78526247D02*
X193785714Y-78764342D01*
X193785714Y-78764342D02*
X193738095Y-78859580D01*
X193738095Y-78859580D02*
X193690476Y-78907200D01*
X193690476Y-78907200D02*
X193595238Y-78954819D01*
X193595238Y-78954819D02*
X193357143Y-78954819D01*
X193357143Y-78954819D02*
X193261905Y-78907200D01*
X193261905Y-78907200D02*
X193214286Y-78859580D01*
X199333333Y-87454819D02*
X199000000Y-86978628D01*
X198761905Y-87454819D02*
X198761905Y-86454819D01*
X198761905Y-86454819D02*
X199142857Y-86454819D01*
X199142857Y-86454819D02*
X199238095Y-86502438D01*
X199238095Y-86502438D02*
X199285714Y-86550057D01*
X199285714Y-86550057D02*
X199333333Y-86645295D01*
X199333333Y-86645295D02*
X199333333Y-86788152D01*
X199333333Y-86788152D02*
X199285714Y-86883390D01*
X199285714Y-86883390D02*
X199238095Y-86931009D01*
X199238095Y-86931009D02*
X199142857Y-86978628D01*
X199142857Y-86978628D02*
X198761905Y-86978628D01*
X200285714Y-87454819D02*
X199714286Y-87454819D01*
X200000000Y-87454819D02*
X200000000Y-86454819D01*
X200000000Y-86454819D02*
X199904762Y-86597676D01*
X199904762Y-86597676D02*
X199809524Y-86692914D01*
X199809524Y-86692914D02*
X199714286Y-86740533D01*
D11*
%TO.C,R4*%
X197090000Y-90764564D02*
X197090000Y-89310436D01*
X198910000Y-90764564D02*
X198910000Y-89310436D01*
%TO.C,D2*%
X192800000Y-85500000D02*
X192800000Y-80500000D01*
X198200000Y-80500000D02*
X198200000Y-85500000D01*
X193000000Y-86000000D02*
X192670000Y-86240000D01*
X192670000Y-85760000D01*
X193000000Y-86000000D01*
G36*
X193000000Y-86000000D02*
G01*
X192670000Y-86240000D01*
X192670000Y-85760000D01*
X193000000Y-86000000D01*
G37*
%TO.C,D1*%
X195800000Y-98600000D02*
X195800000Y-93600000D01*
X201200000Y-93600000D02*
X201200000Y-98600000D01*
X196000000Y-99100000D02*
X195670000Y-99340000D01*
X195670000Y-98860000D01*
X196000000Y-99100000D01*
G36*
X196000000Y-99100000D02*
G01*
X195670000Y-99340000D01*
X195670000Y-98860000D01*
X196000000Y-99100000D01*
G37*
%TO.C,R7*%
X199590000Y-89310436D02*
X199590000Y-90764564D01*
X201410000Y-89310436D02*
X201410000Y-90764564D01*
%TO.C,R9*%
X183310436Y-60090000D02*
X184764564Y-60090000D01*
X183310436Y-61910000D02*
X184764564Y-61910000D01*
%TO.C,R3*%
X181310436Y-65090000D02*
X182764564Y-65090000D01*
X181310436Y-66910000D02*
X182764564Y-66910000D01*
%TO.C,R6*%
X183310436Y-62590000D02*
X184764564Y-62590000D01*
X183310436Y-64410000D02*
X184764564Y-64410000D01*
%TO.C,D3*%
X185500000Y-71600000D02*
X185500000Y-66600000D01*
X190900000Y-66600000D02*
X190900000Y-71600000D01*
X185700000Y-72100000D02*
X185370000Y-72340000D01*
X185370000Y-71860000D01*
X185700000Y-72100000D01*
G36*
X185700000Y-72100000D02*
G01*
X185370000Y-72340000D01*
X185370000Y-71860000D01*
X185700000Y-72100000D01*
G37*
%TO.C,J1*%
X175943019Y-63248819D02*
X177198756Y-63973821D01*
X177100827Y-55603437D02*
X174135827Y-60738967D01*
X177198756Y-63973821D02*
X178098756Y-62414974D01*
X180178019Y-55913585D02*
X181433756Y-56638584D01*
X180533756Y-58197429D02*
X181391121Y-58692430D01*
X181433756Y-56638584D02*
X180533756Y-58197429D01*
%TO.C,R8*%
X194590000Y-74810436D02*
X194590000Y-76264564D01*
X196410000Y-74810436D02*
X196410000Y-76264564D01*
%TO.C,R2*%
X189590000Y-74810436D02*
X189590000Y-76264564D01*
X191410000Y-74810436D02*
X191410000Y-76264564D01*
%TO.C,R5*%
X192090000Y-74847936D02*
X192090000Y-76302064D01*
X193910000Y-74847936D02*
X193910000Y-76302064D01*
%TO.C,R1*%
X194590000Y-89310436D02*
X194590000Y-90764564D01*
X196410000Y-89310436D02*
X196410000Y-90764564D01*
%TD*%
M02*
