ISO-10303-21;
HEADER;
FILE_DESCRIPTION (( 'STEP AP214' ),
    '1' );
FILE_NAME ('BottlePlaceholder.STEP',
    '2025-11-15T18:19:26',
    ( '' ),
    ( '' ),
    'SwSTEP 2.0',
    'SolidWorks 2025',
    '' );
FILE_SCHEMA (( 'AUTOMOTIVE_DESIGN' ));
ENDSEC;

DATA;
#1 = FACE_OUTER_BOUND ( 'NONE', #605, .T. ) ;
#2 = PRESENTATION_LAYER_ASSIGNMENT (  '', '', ( #315 ) ) ;
#3 = ADVANCED_FACE ( 'NONE', ( #57, #682 ), #169, .F. ) ;
#4 = CARTESIAN_POINT ( 'NONE',  ( 0.000000000000000000, 1.000000000000000888, 0.000000000000000000 ) ) ;
#5 = VERTEX_POINT ( 'NONE', #456 ) ;
#6 = CARTESIAN_POINT ( 'NONE',  ( 0.000000000000000000, 65.79999999999999716, 8.750000000000001776 ) ) ;
#7 = ORIENTED_EDGE ( 'NONE', *, *, #660, .T. ) ;
#8 = SURFACE_STYLE_FILL_AREA ( #227 ) ;
#9 = ORIENTED_EDGE ( 'NONE', *, *, #209, .F. ) ;
#10 =( NAMED_UNIT ( * ) SI_UNIT ( $, .STERADIAN. ) SOLID_ANGLE_UNIT ( ) );
#11 = EDGE_CURVE ( 'NONE', #566, #323, #180, .T. ) ;
#12 = CIRCLE ( 'NONE', #215, 11.87500000000000888 ) ;
#13 = VERTEX_POINT ( 'NONE', #624 ) ;
#14 = DIRECTION ( 'NONE',  ( 0.000000000000000000, 0.000000000000000000, 1.000000000000000000 ) ) ;
#15 = DIRECTION ( 'NONE',  ( -0.000000000000000000, 1.000000000000000000, -0.000000000000000000 ) ) ;
#16 = CARTESIAN_POINT ( 'NONE',  ( 0.000000000000000000, 1.000000000000000000, 0.000000000000000000 ) ) ;
#17 = ORIENTED_EDGE ( 'NONE', *, *, #260, .T. ) ;
#18 = AXIS2_PLACEMENT_3D ( 'NONE', #45, #266, #159 ) ;
#19 = EDGE_CURVE ( 'NONE', #633, #644, #640, .T. ) ;
#20 = VECTOR ( 'NONE', #396, 1000.000000000000000 ) ;
#21 = CARTESIAN_POINT ( 'NONE',  ( 0.000000000000000000, 65.79999999999999716, 11.87500000000001066 ) ) ;
#22 = EDGE_CURVE ( 'NONE', #247, #697, #187, .T. ) ;
#23 = VERTEX_POINT ( 'NONE', #337 ) ;
#24 = CARTESIAN_POINT ( 'NONE',  ( 1.186376586673999114E-15, 50.87500000000000000, -7.500000000000003553 ) ) ;
#25 = VERTEX_POINT ( 'NONE', #278 ) ;
#26 = MANIFOLD_SOLID_BREP ( 'Revolve1', #564 ) ;
#27 = DIRECTION ( 'NONE',  ( 0.000000000000000000, 0.000000000000000000, 1.000000000000000000 ) ) ;
#28 = ORIENTED_EDGE ( 'NONE', *, *, #303, .F. ) ;
#29 = CYLINDRICAL_SURFACE ( 'NONE', #514, 8.150000000000000355 ) ;
#30 = CIRCLE ( 'NONE', #676, 7.750000000000003553 ) ;
#31 = FACE_OUTER_BOUND ( 'NONE', #494, .T. ) ;
#32 = DIRECTION ( 'NONE',  ( 0.000000000000000000, 0.000000000000000000, 1.000000000000000000 ) ) ;
#33 = ORIENTED_EDGE ( 'NONE', *, *, #88, .F. ) ;
#34 = DIRECTION ( 'NONE',  ( -0.000000000000000000, 1.000000000000000000, -0.000000000000000000 ) ) ;
#35 = DIRECTION ( 'NONE',  ( -0.000000000000000000, 1.000000000000000000, -0.000000000000000000 ) ) ;
#36 = FACE_OUTER_BOUND ( 'NONE', #277, .T. ) ;
#37 = CIRCLE ( 'NONE', #679, 8.750000000000001776 ) ;
#38 = ORIENTED_EDGE ( 'NONE', *, *, #74, .F. ) ;
#39 = CARTESIAN_POINT ( 'NONE',  ( 9.980871413050929957E-16, 65.79999999999999716, -8.150000000000000355 ) ) ;
#40 = FACE_OUTER_BOUND ( 'NONE', #345, .T. ) ;
#41 = DIRECTION ( 'NONE',  ( 0.000000000000000000, 0.000000000000000000, 1.000000000000000000 ) ) ;
#42 = CARTESIAN_POINT ( 'NONE',  ( 0.000000000000000000, 77.27499999999999147, 8.150000000000002132 ) ) ;
#43 = EDGE_LOOP ( 'NONE', ( #179, #293 ) ) ;
#44 = FACE_OUTER_BOUND ( 'NONE', #174, .T. ) ;
#45 = CARTESIAN_POINT ( 'NONE',  ( 0.000000000000000000, 0.000000000000000000, 0.000000000000000000 ) ) ;
#46 = AXIS2_PLACEMENT_3D ( 'NONE', #307, #469, #32 ) ;
#47 = ORIENTED_EDGE ( 'NONE', *, *, #570, .T. ) ;
#48 = DIRECTION ( 'NONE',  ( 0.000000000000000000, 0.000000000000000000, 1.000000000000000000 ) ) ;
#49 = PLANE ( 'NONE',  #602 ) ;
#50 = CIRCLE ( 'NONE', #458, 7.750000000000003553 ) ;
#51 = EDGE_CURVE ( 'NONE', #78, #252, #239, .T. ) ;
#52 = DIRECTION ( 'NONE',  ( -1.000000000000000000, 0.000000000000000000, 0.000000000000000000 ) ) ;
#53 = FACE_OUTER_BOUND ( 'NONE', #84, .T. ) ;
#54 = EDGE_CURVE ( 'NONE', #627, #323, #668, .T. ) ;
#55 = CARTESIAN_POINT ( 'NONE',  ( 0.000000000000000000, 1.000000000000000000, 0.000000000000000000 ) ) ;
#56 = ORIENTED_EDGE ( 'NONE', *, *, #607, .T. ) ;
#57 = FACE_OUTER_BOUND ( 'NONE', #475, .T. ) ;
#58 = VECTOR ( 'NONE', #601, 1000.000000000000000 ) ;
#59 = COLOUR_RGB ( '',0.7921568627450980005, 0.8196078431372548767, 0.9333333333333333481 ) ;
#60 = PLANE ( 'NONE',  #733 ) ;
#61 = VERTEX_POINT ( 'NONE', #62 ) ;
#62 = CARTESIAN_POINT ( 'NONE',  ( 0.000000000000000000, 2.409558551655269110, 7.750000000000003553 ) ) ;
#63 = ORIENTED_EDGE ( 'NONE', *, *, #457, .T. ) ;
#64 = CARTESIAN_POINT ( 'NONE',  ( 9.750000000000001776, 2.168404344971008868E-16, 0.000000000000000000 ) ) ;
#65 = EDGE_CURVE ( 'NONE', #627, #25, #152, .T. ) ;
#66 = TOROIDAL_SURFACE ( 'NONE', #637, 7.750000000000003553, 0.9999999999999995559 ) ;
#67 = CIRCLE ( 'NONE', #387, 7.200000000000001066 ) ;
#68 = ORIENTED_EDGE ( 'NONE', *, *, #491, .T. ) ;
#69 = DIRECTION ( 'NONE',  ( -1.000000000000000000, 0.000000000000000000, 0.000000000000000000 ) ) ;
#70 = VECTOR ( 'NONE', #373, 1000.000000000000000 ) ;
#71 = AXIS2_PLACEMENT_3D ( 'NONE', #199, #526, #150 ) ;
#72 = FACE_OUTER_BOUND ( 'NONE', #427, .T. ) ;
#73 = FACE_BOUND ( 'NONE', #719, .T. ) ;
#74 = EDGE_CURVE ( 'NONE', #404, #235, #379, .T. ) ;
#75 = ORIENTED_EDGE ( 'NONE', *, *, #11, .F. ) ;
#76 = EDGE_CURVE ( 'NONE', #95, #13, #631, .T. ) ;
#77 = CARTESIAN_POINT ( 'NONE',  ( 0.000000000000000000, 89.97499999999999432, 0.000000000000000000 ) ) ;
#78 = VERTEX_POINT ( 'NONE', #695 ) ;
#79 = DIRECTION ( 'NONE',  ( -0.000000000000000000, 1.000000000000000000, -0.000000000000000000 ) ) ;
#80 = ORIENTED_EDGE ( 'NONE', *, *, #436, .T. ) ;
#81 = TOROIDAL_SURFACE ( 'NONE', #340, 10.87500000000000888, 1.000000000000000444 ) ;
#82 = AXIS2_PLACEMENT_3D ( 'NONE', #153, #425, #380 ) ;
#83 = DIRECTION ( 'NONE',  ( -0.000000000000000000, 1.000000000000000000, -0.000000000000000000 ) ) ;
#84 = EDGE_LOOP ( 'NONE', ( #516, #694, #190, #267 ) ) ;
#85 = CARTESIAN_POINT ( 'NONE',  ( 8.817456953860942303E-16, 77.27499999999999147, -7.200000000000000178 ) ) ;
#86 = CARTESIAN_POINT ( 'NONE',  ( 0.000000000000000000, 1.000000000000000888, 8.750000000000001776 ) ) ;
#87 = CARTESIAN_POINT ( 'NONE',  ( 1.331803394072747694E-15, 1.000000000000000000, -10.87500000000000888 ) ) ;
#88 = EDGE_CURVE ( 'NONE', #581, #103, #255, .T. ) ;
#89 = ORIENTED_EDGE ( 'NONE', *, *, #403, .T. ) ;
#90 = CARTESIAN_POINT ( 'NONE',  ( 0.000000000000000000, 1.000000000000000888, 0.000000000000000000 ) ) ;
#91 = DIRECTION ( 'NONE',  ( 0.000000000000000000, 0.000000000000000000, 1.000000000000000000 ) ) ;
#92 = TOROIDAL_SURFACE ( 'NONE', #707, 9.750000000000001776, 0.9999999999999995559 ) ;
#93 = DIRECTION ( 'NONE',  ( 0.000000000000000000, 0.000000000000000000, 1.000000000000000000 ) ) ;
#94 = CARTESIAN_POINT ( 'NONE',  ( 0.000000000000000000, 89.97499999999999432, 0.000000000000000000 ) ) ;
#95 = VERTEX_POINT ( 'NONE', #606 ) ;
#96 = CARTESIAN_POINT ( 'NONE',  ( 0.000000000000000000, 65.79999999999999716, 0.000000000000000000 ) ) ;
#97 = AXIS2_PLACEMENT_3D ( 'NONE', #64, #347, #121 ) ;
#98 = DIRECTION ( 'NONE',  ( 0.000000000000000000, 0.000000000000000000, 1.000000000000000000 ) ) ;
#99 = FACE_OUTER_BOUND ( 'NONE', #579, .T. ) ;
#100 = DIRECTION ( 'NONE',  ( 0.000000000000000000, 0.000000000000000000, 1.000000000000000000 ) ) ;
#101 = DIRECTION ( 'NONE',  ( 0.000000000000000000, 0.000000000000000000, 1.000000000000000000 ) ) ;
#102 = DIRECTION ( 'NONE',  ( 0.000000000000000000, 0.000000000000000000, 1.000000000000000000 ) ) ;
#103 = VERTEX_POINT ( 'NONE', #85 ) ;
#104 = FACE_OUTER_BOUND ( 'NONE', #672, .T. ) ;
#105 = CARTESIAN_POINT ( 'NONE',  ( 0.000000000000000000, 69.07500000000000284, 10.00000000000000355 ) ) ;
#106 = ADVANCED_FACE ( 'NONE', ( #545 ), #482, .T. ) ;
#107 = CIRCLE ( 'NONE', #476, 8.150000000000000355 ) ;
#108 = ORIENTED_EDGE ( 'NONE', *, *, #128, .F. ) ;
#109 = DIRECTION ( 'NONE',  ( 0.000000000000000000, 0.000000000000000000, 1.000000000000000000 ) ) ;
#110 = VECTOR ( 'NONE', #35, 1000.000000000000000 ) ;
#111 = DIRECTION ( 'NONE',  ( 0.000000000000000000, -0.000000000000000000, -1.000000000000000000 ) ) ;
#112 = DIRECTION ( 'NONE',  ( -0.000000000000000000, 1.000000000000000000, -0.000000000000000000 ) ) ;
#113 = EDGE_LOOP ( 'NONE', ( #28, #264, #470, #298 ) ) ;
#114 = DIRECTION ( 'NONE',  ( 0.000000000000000000, 0.000000000000000000, 1.000000000000000000 ) ) ;
#115 = VERTEX_POINT ( 'NONE', #24 ) ;
#116 = APPLICATION_CONTEXT ( 'automotive_design' ) ;
#117 = AXIS2_PLACEMENT_3D ( 'NONE', #16, #191, #701 ) ;
#118 = AXIS2_PLACEMENT_3D ( 'NONE', #460, #692, #123 ) ;
#119 = ADVANCED_FACE ( 'NONE', ( #305, #705 ), #487, .F. ) ;
#120 = ORIENTED_EDGE ( 'NONE', *, *, #462, .F. ) ;
#121 = DIRECTION ( 'NONE',  ( 0.000000000000000000, 0.000000000000000000, 1.000000000000000000 ) ) ;
#122 = ORIENTED_EDGE ( 'NONE', *, *, #389, .F. ) ;
#123 = DIRECTION ( 'NONE',  ( 0.000000000000000000, 0.000000000000000000, 1.000000000000000000 ) ) ;
#124 = AXIS2_PLACEMENT_3D ( 'NONE', #450, #334, #222 ) ;
#125 = EDGE_CURVE ( 'NONE', #193, #23, #290, .T. ) ;
#126 = DIRECTION ( 'NONE',  ( -0.000000000000000000, 1.000000000000000000, -0.000000000000000000 ) ) ;
#127 = DIRECTION ( 'NONE',  ( -0.000000000000000000, 1.000000000000000000, -0.000000000000000000 ) ) ;
#128 = EDGE_CURVE ( 'NONE', #566, #78, #37, .T. ) ;
#129 = ORIENTED_EDGE ( 'NONE', *, *, #628, .F. ) ;
#130 = CARTESIAN_POINT ( 'NONE',  ( 1.071565949253934321E-15, 65.79999999999999716, -8.750000000000001776 ) ) ;
#131 = ORIENTED_EDGE ( 'NONE', *, *, #54, .T. ) ;
#132 = ORIENTED_EDGE ( 'NONE', *, *, #546, .T. ) ;
#133 = CIRCLE ( 'NONE', #646, 7.500000000000003553 ) ;
#134 = CARTESIAN_POINT ( 'NONE',  ( 0.000000000000000000, 65.79999999999999716, 7.750000000000003553 ) ) ;
#135 = ORIENTED_EDGE ( 'NONE', *, *, #403, .F. ) ;
#136 = CARTESIAN_POINT ( 'NONE',  ( 9.491012693391991731E-16, 52.87500000000000711, -7.750000000000003553 ) ) ;
#137 = AXIS2_PLACEMENT_3D ( 'NONE', #440, #479, #210 ) ;
#138 = ADVANCED_FACE ( 'NONE', ( #711 ), #720, .T. ) ;
#139 = CYLINDRICAL_SURFACE ( 'NONE', #269, 7.200000000000000178 ) ;
#140 = CARTESIAN_POINT ( 'NONE',  ( 0.000000000000000000, 69.07500000000000284, 0.000000000000000000 ) ) ;
#141 = ORIENTED_EDGE ( 'NONE', *, *, #333, .F. ) ;
#142 = CARTESIAN_POINT ( 'NONE',  ( 0.000000000000000000, 65.79999999999999716, 0.000000000000000000 ) ) ;
#143 = CARTESIAN_POINT ( 'NONE',  ( 0.000000000000000000, 1.000000000000000000, 0.000000000000000000 ) ) ;
#144 = DIRECTION ( 'NONE',  ( 0.000000000000000000, 0.000000000000000000, 1.000000000000000000 ) ) ;
#145 = ORIENTED_EDGE ( 'NONE', *, *, #282, .T. ) ;
#146 = LINE ( 'NONE', #368, #70 ) ;
#147 = CARTESIAN_POINT ( 'NONE',  ( 0.000000000000000000, 46.50000000000000000, 0.000000000000000000 ) ) ;
#148 = DIRECTION ( 'NONE',  ( 0.000000000000000000, -0.000000000000000000, -1.000000000000000000 ) ) ;
#149 = VERTEX_POINT ( 'NONE', #136 ) ;
#150 = DIRECTION ( 'NONE',  ( 0.000000000000000000, 0.000000000000000000, 1.000000000000000000 ) ) ;
#151 = TOROIDAL_SURFACE ( 'NONE', #117, 10.87500000000000888, 1.000000000000000444 ) ;
#152 = CIRCLE ( 'NONE', #699, 0.9999999999999991118 ) ;
#153 = CARTESIAN_POINT ( 'NONE',  ( 0.000000000000000000, 77.27499999999999147, 0.000000000000000000 ) ) ;
#154 = DIRECTION ( 'NONE',  ( -0.000000000000000000, 1.000000000000000000, -0.000000000000000000 ) ) ;
#155 = EDGE_CURVE ( 'NONE', #633, #235, #390, .T. ) ;
#156 = ORIENTED_EDGE ( 'NONE', *, *, #303, .T. ) ;
#157 = ADVANCED_FACE ( 'NONE', ( #320 ), #582, .T. ) ;
#158 = CARTESIAN_POINT ( 'NONE',  ( 9.184850993605153861E-16, 46.50000000000000000, -7.500000000000003553 ) ) ;
#159 = DIRECTION ( 'NONE',  ( 0.000000000000000000, 0.000000000000000000, 1.000000000000000000 ) ) ;
#160 = ORIENTED_EDGE ( 'NONE', *, *, #358, .F. ) ;
#161 = AXIS2_PLACEMENT_3D ( 'NONE', #678, #112, #162 ) ;
#162 = DIRECTION ( 'NONE',  ( 0.000000000000000000, 0.000000000000000000, 1.000000000000000000 ) ) ;
#163 = CIRCLE ( 'NONE', #615, 9.750000000000001776 ) ;
#164 = DIRECTION ( 'NONE',  ( -0.000000000000000000, 1.000000000000000000, -0.000000000000000000 ) ) ;
#165 = AXIS2_PLACEMENT_3D ( 'NONE', #364, #377, #208 ) ;
#166 = AXIS2_PLACEMENT_3D ( 'NONE', #573, #69, #14 ) ;
#167 = CARTESIAN_POINT ( 'NONE',  ( 0.000000000000000000, 65.79999999999999716, 0.000000000000000000 ) ) ;
#168 = EDGE_LOOP ( 'NONE', ( #681, #544, #405, #610 ) ) ;
#169 = PLANE ( 'NONE',  #97 ) ;
#170 = CARTESIAN_POINT ( 'NONE',  ( 0.000000000000000000, 50.87500000000000000, 0.000000000000000000 ) ) ;
#171 = EDGE_LOOP ( 'NONE', ( #472, #638, #521, #56 ) ) ;
#172 =( LENGTH_UNIT ( ) NAMED_UNIT ( * ) SI_UNIT ( .MILLI., .METRE. ) );
#173 = PRODUCT_RELATED_PRODUCT_CATEGORY ( 'part', '', ( #442 ) ) ;
#174 = EDGE_LOOP ( 'NONE', ( #710, #301, #135, #422 ) ) ;
#175 =( NAMED_UNIT ( * ) PLANE_ANGLE_UNIT ( ) SI_UNIT ( $, .RADIAN. ) );
#176 = TOROIDAL_SURFACE ( 'NONE', #214, 7.500000000000003553, 4.375000000000004441 ) ;
#177 = TOROIDAL_SURFACE ( 'NONE', #362, 7.500000000000003553, 4.375000000000004441 ) ;
#178 = EDGE_CURVE ( 'NONE', #464, #697, #589, .T. ) ;
#179 = ORIENTED_EDGE ( 'NONE', *, *, #358, .T. ) ;
#180 = LINE ( 'NONE', #6, #20 ) ;
#181 = EDGE_CURVE ( 'NONE', #342, #247, #146, .T. ) ;
#182 = EDGE_LOOP ( 'NONE', ( #399, #663, #131, #75 ) ) ;
#183 = DIRECTION ( 'NONE',  ( -0.000000000000000000, 1.000000000000000000, -0.000000000000000000 ) ) ;
#184 = AXIS2_PLACEMENT_3D ( 'NONE', #622, #503, #109 ) ;
#185 = ADVANCED_FACE ( 'NONE', ( #531 ), #299, .T. ) ;
#186 = LINE ( 'NONE', #134, #325 ) ;
#187 = CIRCLE ( 'NONE', #604, 8.150000000000002132 ) ;
#188 = ORIENTED_EDGE ( 'NONE', *, *, #467, .F. ) ;
#189 = CARTESIAN_POINT ( 'NONE',  ( 0.000000000000000000, 69.07500000000000284, 8.150000000000000355 ) ) ;
#190 = ORIENTED_EDGE ( 'NONE', *, *, #436, .F. ) ;
#191 = DIRECTION ( 'NONE',  ( -0.000000000000000000, 1.000000000000000000, -0.000000000000000000 ) ) ;
#192 = AXIS2_PLACEMENT_3D ( 'NONE', #170, #556, #391 ) ;
#193 = VERTEX_POINT ( 'NONE', #541 ) ;
#194 = DIRECTION ( 'NONE',  ( 0.000000000000000000, 0.000000000000000000, 1.000000000000000000 ) ) ;
#195 = ADVANCED_FACE ( 'NONE', ( #419 ), #29, .T. ) ;
#196 = AXIS2_PLACEMENT_3D ( 'NONE', #412, #237, #27 ) ;
#197 = DIRECTION ( 'NONE',  ( 0.000000000000000000, 0.000000000000000000, 1.000000000000000000 ) ) ;
#198 = EDGE_LOOP ( 'NONE', ( #33, #591 ) ) ;
#199 = CARTESIAN_POINT ( 'NONE',  ( 0.000000000000000000, 77.27499999999999147, 0.000000000000000000 ) ) ;
#200 = TOROIDAL_SURFACE ( 'NONE', #725, 9.750000000000001776, 0.9999999999999995559 ) ;
#201 = DIRECTION ( 'NONE',  ( 0.000000000000000000, 0.000000000000000000, 1.000000000000000000 ) ) ;
#202 = FACE_OUTER_BOUND ( 'NONE', #363, .T. ) ;
#203 = ORIENTED_EDGE ( 'NONE', *, *, #326, .F. ) ;
#204 = DIRECTION ( 'NONE',  ( 0.000000000000000000, 0.000000000000000000, 1.000000000000000000 ) ) ;
#205 = CARTESIAN_POINT ( 'NONE',  ( 0.000000000000000000, 65.79999999999999716, 0.000000000000000000 ) ) ;
#206 = DIRECTION ( 'NONE',  ( -0.000000000000000000, 1.000000000000000000, -0.000000000000000000 ) ) ;
#207 = ORIENTED_EDGE ( 'NONE', *, *, #726, .F. ) ;
#208 = DIRECTION ( 'NONE',  ( 0.000000000000000000, 0.000000000000000000, 1.000000000000000000 ) ) ;
#209 = EDGE_CURVE ( 'NONE', #697, #247, #254, .T. ) ;
#210 = DIRECTION ( 'NONE',  ( 0.000000000000000000, 0.000000000000000000, 1.000000000000000000 ) ) ;
#211 = DIRECTION ( 'NONE',  ( -0.000000000000000000, 1.000000000000000000, -0.000000000000000000 ) ) ;
#212 = ORIENTED_EDGE ( 'NONE', *, *, #389, .T. ) ;
#213 = ADVANCED_FACE ( 'NONE', ( #36 ), #176, .T. ) ;
#214 = AXIS2_PLACEMENT_3D ( 'NONE', #312, #539, #554 ) ;
#215 = AXIS2_PLACEMENT_3D ( 'NONE', #147, #374, #98 ) ;
#216 = AXIS2_PLACEMENT_3D ( 'NONE', #233, #567, #569 ) ;
#217 = DIRECTION ( 'NONE',  ( 0.000000000000000000, 0.000000000000000000, 1.000000000000000000 ) ) ;
#218 = VERTEX_POINT ( 'NONE', #105 ) ;
#219 = DIRECTION ( 'NONE',  ( 0.000000000000000000, 0.000000000000000000, 1.000000000000000000 ) ) ;
#220 = ADVANCED_FACE ( 'NONE', ( #328 ), #426, .T. ) ;
#221 = VECTOR ( 'NONE', #398, 1000.000000000000000 ) ;
#222 = DIRECTION ( 'NONE',  ( 0.000000000000000000, 0.000000000000000000, 1.000000000000000000 ) ) ;
#223 = DIRECTION ( 'NONE',  ( 0.000000000000000000, 0.000000000000000000, 1.000000000000000000 ) ) ;
#224 = DIRECTION ( 'NONE',  ( -0.000000000000000000, 1.000000000000000000, -0.000000000000000000 ) ) ;
#225 = DIRECTION ( 'NONE',  ( -0.000000000000000000, 1.000000000000000000, -0.000000000000000000 ) ) ;
#226 = ORIENTED_EDGE ( 'NONE', *, *, #155, .T. ) ;
#227 = FILL_AREA_STYLE ('',( #287 ) ) ;
#228 = ORIENTED_EDGE ( 'NONE', *, *, #76, .F. ) ;
#229 = CARTESIAN_POINT ( 'NONE',  ( 9.491012693391991731E-16, 1.409558551655269554, -7.750000000000003553 ) ) ;
#230 = AXIS2_PLACEMENT_3D ( 'NONE', #577, #723, #41 ) ;
#231 = ADVANCED_FACE ( 'NONE', ( #489, #202 ), #49, .F. ) ;
#232 = ORIENTED_EDGE ( 'NONE', *, *, #415, .F. ) ;
#233 = CARTESIAN_POINT ( 'NONE',  ( 0.000000000000000000, 1.409558551655268221, 0.000000000000000000 ) ) ;
#234 = ORIENTED_EDGE ( 'NONE', *, *, #462, .T. ) ;
#235 = VERTEX_POINT ( 'NONE', #662 ) ;
#236 = DIRECTION ( 'NONE',  ( 0.000000000000000000, 0.000000000000000000, 1.000000000000000000 ) ) ;
#237 = DIRECTION ( 'NONE',  ( -0.000000000000000000, 1.000000000000000000, -0.000000000000000000 ) ) ;
#238 = AXIS2_PLACEMENT_3D ( 'NONE', #94, #211, #549 ) ;
#239 = CIRCLE ( 'NONE', #524, 0.9999999999999991118 ) ;
#240 = ORIENTED_EDGE ( 'NONE', *, *, #445, .T. ) ;
#241 = DIRECTION ( 'NONE',  ( -0.000000000000000000, 1.000000000000000000, -0.000000000000000000 ) ) ;
#242 = ORIENTED_EDGE ( 'NONE', *, *, #660, .F. ) ;
#243 = CARTESIAN_POINT ( 'NONE',  ( 0.000000000000000000, 65.79999999999999716, 0.000000000000000000 ) ) ;
#244 = ORIENTED_EDGE ( 'NONE', *, *, #54, .F. ) ;
#245 = LINE ( 'NONE', #641, #512 ) ;
#246 = AXIS2_PLACEMENT_3D ( 'NONE', #594, #52, #429 ) ;
#247 = VERTEX_POINT ( 'NONE', #42 ) ;
#248 = DIRECTION ( 'NONE',  ( 0.000000000000000000, 0.000000000000000000, 1.000000000000000000 ) ) ;
#249 = CIRCLE ( 'NONE', #677, 8.750000000000001776 ) ;
#250 = DIRECTION ( 'NONE',  ( -0.000000000000000000, 1.000000000000000000, -0.000000000000000000 ) ) ;
#251 = CARTESIAN_POINT ( 'NONE',  ( 10.00000000000000355, 69.07500000000000284, 0.000000000000000000 ) ) ;
#252 = VERTEX_POINT ( 'NONE', #257 ) ;
#253 = DIRECTION ( 'NONE',  ( 0.000000000000000000, 0.000000000000000000, 1.000000000000000000 ) ) ;
#254 = CIRCLE ( 'NONE', #576, 8.150000000000002132 ) ;
#255 = CIRCLE ( 'NONE', #71, 7.200000000000000178 ) ;
#256 = DIRECTION ( 'NONE',  ( -0.000000000000000000, 1.000000000000000000, -0.000000000000000000 ) ) ;
#257 = CARTESIAN_POINT ( 'NONE',  ( 1.194030629168669667E-15, 2.168404344971008868E-16, -9.750000000000001776 ) ) ;
#258 = EDGE_LOOP ( 'NONE', ( #80, #597 ) ) ;
#259 = DIRECTION ( 'NONE',  ( -0.000000000000000000, 1.000000000000000000, -0.000000000000000000 ) ) ;
#260 = EDGE_CURVE ( 'NONE', #464, #342, #629, .T. ) ;
#261 = APPLICATION_PROTOCOL_DEFINITION ( 'draft international standard', 'automotive_design', 1998, #116 ) ;
#262 = DIRECTION ( 'NONE',  ( -0.000000000000000000, 1.000000000000000000, -0.000000000000000000 ) ) ;
#263 = DIRECTION ( 'NONE',  ( -1.000000000000000000, 0.000000000000000000, 0.000000000000000000 ) ) ;
#264 = ORIENTED_EDGE ( 'NONE', *, *, #125, .T. ) ;
#265 = CARTESIAN_POINT ( 'NONE',  ( 0.000000000000000000, 65.79999999999999716, 0.000000000000000000 ) ) ;
#266 = DIRECTION ( 'NONE',  ( -0.000000000000000000, 1.000000000000000000, -0.000000000000000000 ) ) ;
#267 = ORIENTED_EDGE ( 'NONE', *, *, #271, .F. ) ;
#268 = CIRCLE ( 'NONE', #238, 7.200000000000001066 ) ;
#269 = AXIS2_PLACEMENT_3D ( 'NONE', #265, #383, #48 ) ;
#270 = DIRECTION ( 'NONE',  ( 1.224646799147353454E-16, 0.000000000000000000, -1.000000000000000000 ) ) ;
#271 = EDGE_CURVE ( 'NONE', #566, #343, #522, .T. ) ;
#272 = FACE_BOUND ( 'NONE', #43, .T. ) ;
#273 = CARTESIAN_POINT ( 'NONE',  ( 8.817456953860944275E-16, 89.97499999999999432, -7.200000000000001954 ) ) ;
#274 = CARTESIAN_POINT ( 'NONE',  ( 0.000000000000000000, 1.409558551655269554, 0.000000000000000000 ) ) ;
#275 = CARTESIAN_POINT ( 'NONE',  ( 9.980871413050931929E-16, 77.27499999999999147, -8.150000000000002132 ) ) ;
#276 = CIRCLE ( 'NONE', #18, 9.750000000000001776 ) ;
#277 = EDGE_LOOP ( 'NONE', ( #657, #132, #188, #228 ) ) ;
#278 = CARTESIAN_POINT ( 'NONE',  ( 1.010333609296566944E-15, 2.409558551655269110, -7.750000000000003553 ) ) ;
#279 = EDGE_CURVE ( 'NONE', #527, #95, #585, .T. ) ;
#280 = DIRECTION ( 'NONE',  ( -0.000000000000000000, 1.000000000000000000, -0.000000000000000000 ) ) ;
#281 = VERTEX_POINT ( 'NONE', #375 ) ;
#282 = EDGE_CURVE ( 'NONE', #581, #684, #371, .T. ) ;
#283 = ORIENTED_EDGE ( 'NONE', *, *, #341, .F. ) ;
#284 = DIRECTION ( 'NONE',  ( 0.000000000000000000, 0.000000000000000000, 1.000000000000000000 ) ) ;
#285 = AXIS2_PLACEMENT_3D ( 'NONE', #351, #714, #197 ) ;
#286 = EDGE_LOOP ( 'NONE', ( #614, #417 ) ) ;
#287 = FILL_AREA_STYLE_COLOUR ( '', #59 ) ;
#288 = AXIS2_PLACEMENT_3D ( 'NONE', #423, #664, #100 ) ;
#289 = ADVANCED_FACE ( 'NONE', ( #99 ), #81, .T. ) ;
#290 = CIRCLE ( 'NONE', #483, 7.750000000000003553 ) ;
#291 = DIRECTION ( 'NONE',  ( 0.000000000000000000, 0.000000000000000000, 1.000000000000000000 ) ) ;
#292 = PLANE ( 'NONE',  #708 ) ;
#293 = ORIENTED_EDGE ( 'NONE', *, *, #592, .T. ) ;
#294 = PRODUCT_DEFINITION ( 'UNKNOWN', '', #452, #332 ) ;
#295 = CARTESIAN_POINT ( 'NONE',  ( 0.000000000000000000, 0.000000000000000000, 0.000000000000000000 ) ) ;
#296 = AXIS2_PLACEMENT_3D ( 'NONE', #485, #718, #144 ) ;
#297 = AXIS2_PLACEMENT_3D ( 'NONE', #608, #595, #219 ) ;
#298 = ORIENTED_EDGE ( 'NONE', *, *, #592, .F. ) ;
#299 = CYLINDRICAL_SURFACE ( 'NONE', #575, 7.200000000000000178 ) ;
#300 = MECHANICAL_DESIGN_GEOMETRIC_PRESENTATION_REPRESENTATION (  '', ( #315 ), #409 ) ;
#301 = ORIENTED_EDGE ( 'NONE', *, *, #673, .T. ) ;
#302 = DIRECTION ( 'NONE',  ( 1.000000000000000000, 0.000000000000000000, 1.224646799147353207E-16 ) ) ;
#303 = EDGE_CURVE ( 'NONE', #193, #149, #441, .T. ) ;
#304 = EDGE_LOOP ( 'NONE', ( #583, #459, #240, #525 ) ) ;
#305 = FACE_OUTER_BOUND ( 'NONE', #727, .T. ) ;
#306 = CARTESIAN_POINT ( 'NONE',  ( 0.000000000000000000, 52.87500000000000711, 0.000000000000000000 ) ) ;
#307 = CARTESIAN_POINT ( 'NONE',  ( 0.000000000000000000, 52.87500000000000711, 0.000000000000000000 ) ) ;
#308 = CIRCLE ( 'NONE', #473, 10.00000000000000355 ) ;
#309 = ORIENTED_EDGE ( 'NONE', *, *, #22, .F. ) ;
#310 = DIRECTION ( 'NONE',  ( 0.000000000000000000, 0.000000000000000000, 1.000000000000000000 ) ) ;
#311 = FACE_OUTER_BOUND ( 'NONE', #401, .T. ) ;
#312 = CARTESIAN_POINT ( 'NONE',  ( 0.000000000000000000, 46.50000000000000000, 0.000000000000000000 ) ) ;
#313 = ORIENTED_EDGE ( 'NONE', *, *, #326, .T. ) ;
#314 = DIRECTION ( 'NONE',  ( 0.000000000000000000, 0.000000000000000000, 1.000000000000000000 ) ) ;
#315 = STYLED_ITEM ( 'NONE', ( #509 ), #26 ) ;
#316 =( NAMED_UNIT ( * ) SI_UNIT ( $, .STERADIAN. ) SOLID_ANGLE_UNIT ( ) );
#317 = CARTESIAN_POINT ( 'NONE',  ( 0.000000000000000000, 2.409558551655269110, 0.000000000000000000 ) ) ;
#318 = CARTESIAN_POINT ( 'NONE',  ( 0.000000000000000000, 1.000000000000000000, 0.000000000000000000 ) ) ;
#319 = ORIENTED_EDGE ( 'NONE', *, *, #706, .T. ) ;
#320 = FACE_OUTER_BOUND ( 'NONE', #481, .T. ) ;
#321 = CYLINDRICAL_SURFACE ( 'NONE', #515, 10.00000000000000355 ) ;
#322 = CARTESIAN_POINT ( 'NONE',  ( 9.491012693391991731E-16, 65.79999999999999716, -7.750000000000003553 ) ) ;
#323 = VERTEX_POINT ( 'NONE', #543 ) ;
#324 = APPLICATION_PROTOCOL_DEFINITION ( 'draft international standard', 'automotive_design', 1998, #700 ) ;
#325 = VECTOR ( 'NONE', #528, 1000.000000000000000 ) ;
#326 = EDGE_CURVE ( 'NONE', #688, #684, #268, .T. ) ;
#327 = CARTESIAN_POINT ( 'NONE',  ( 0.000000000000000000, 2.409558551655269110, 0.000000000000000000 ) ) ;
#328 = FACE_OUTER_BOUND ( 'NONE', #443, .T. ) ;
#329 = ORIENTED_EDGE ( 'NONE', *, *, #706, .F. ) ;
#330 =( LENGTH_UNIT ( ) NAMED_UNIT ( * ) SI_UNIT ( .MILLI., .METRE. ) );
#331 = CARTESIAN_POINT ( 'NONE',  ( 0.000000000000000000, 0.000000000000000000, 10.87500000000000888 ) ) ;
#332 = PRODUCT_DEFINITION_CONTEXT ( 'detailed design', #116, 'design' ) ;
#333 = EDGE_CURVE ( 'NONE', #252, #343, #276, .T. ) ;
#334 = DIRECTION ( 'NONE',  ( -0.000000000000000000, 1.000000000000000000, -0.000000000000000000 ) ) ;
#335 = CARTESIAN_POINT ( 'NONE',  ( 0.000000000000000000, 89.97499999999999432, 7.200000000000001066 ) ) ;
#336 = ORIENTED_EDGE ( 'NONE', *, *, #360, .T. ) ;
#337 = CARTESIAN_POINT ( 'NONE',  ( 0.000000000000000000, 50.87500000000000000, 7.750000000000003553 ) ) ;
#338 = EDGE_CURVE ( 'NONE', #281, #218, #698, .T. ) ;
#339 = CARTESIAN_POINT ( 'NONE',  ( 1.393035734030115466E-15, 0.000000000000000000, -10.87500000000000888 ) ) ;
#340 = AXIS2_PLACEMENT_3D ( 'NONE', #318, #493, #431 ) ;
#341 = EDGE_CURVE ( 'NONE', #644, #404, #438, .T. ) ;
#342 = VERTEX_POINT ( 'NONE', #189 ) ;
#343 = VERTEX_POINT ( 'NONE', #463 ) ;
#344 = DIRECTION ( 'NONE',  ( 1.224646799147353454E-16, 0.000000000000000000, -1.000000000000000000 ) ) ;
#345 = EDGE_LOOP ( 'NONE', ( #120, #329 ) ) ;
#346 = AXIS2_PLACEMENT_3D ( 'NONE', #369, #674, #91 ) ;
#347 = DIRECTION ( 'NONE',  ( -0.000000000000000000, 1.000000000000000000, 0.000000000000000000 ) ) ;
#348 = ADVANCED_FACE ( 'NONE', ( #407 ), #151, .T. ) ;
#349 = CIRCLE ( 'NONE', #552, 10.00000000000000355 ) ;
#350 = CYLINDRICAL_SURFACE ( 'NONE', #230, 11.87500000000001066 ) ;
#351 = CARTESIAN_POINT ( 'NONE',  ( 0.000000000000000000, 65.79999999999999716, 0.000000000000000000 ) ) ;
#352 = EDGE_CURVE ( 'NONE', #23, #382, #186, .T. ) ;
#353 = ORIENTED_EDGE ( 'NONE', *, *, #352, .F. ) ;
#354 = DIRECTION ( 'NONE',  ( 0.000000000000000000, 0.000000000000000000, 1.000000000000000000 ) ) ;
#355 = ADVANCED_BREP_SHAPE_REPRESENTATION ( 'BottlePlaceholder', ( #26, #411 ), #393 ) ;
#356 = ORIENTED_EDGE ( 'NONE', *, *, #478, .F. ) ;
#357 = CIRCLE ( 'NONE', #46, 10.00000000000000355 ) ;
#358 = EDGE_CURVE ( 'NONE', #382, #149, #687, .T. ) ;
#359 = ORIENTED_EDGE ( 'NONE', *, *, #513, .T. ) ;
#360 = EDGE_CURVE ( 'NONE', #5, #281, #245, .T. ) ;
#361 = DIRECTION ( 'NONE',  ( -0.000000000000000000, 1.000000000000000000, -0.000000000000000000 ) ) ;
#362 = AXIS2_PLACEMENT_3D ( 'NONE', #713, #538, #201 ) ;
#363 = EDGE_LOOP ( 'NONE', ( #648, #508 ) ) ;
#364 = CARTESIAN_POINT ( 'NONE',  ( 0.000000000000000000, 1.000000000000000000, 10.87500000000000888 ) ) ;
#365 = PLANE ( 'NONE',  #297 ) ;
#366 = DIRECTION ( 'NONE',  ( 0.000000000000000000, -1.000000000000000000, 0.000000000000000000 ) ) ;
#367 = ORIENTED_EDGE ( 'NONE', *, *, #546, .F. ) ;
#368 = CARTESIAN_POINT ( 'NONE',  ( 0.000000000000000000, 65.79999999999999716, 8.150000000000000355 ) ) ;
#369 = CARTESIAN_POINT ( 'NONE',  ( 7.750000000000003553, 52.87500000000000711, 0.000000000000000000 ) ) ;
#370 = CARTESIAN_POINT ( 'NONE',  ( 1.454268073987483237E-15, 65.79999999999999716, -11.87500000000001066 ) ) ;
#371 = LINE ( 'NONE', #612, #58 ) ;
#372 = EDGE_LOOP ( 'NONE', ( #455, #7 ) ) ;
#373 = DIRECTION ( 'NONE',  ( -0.000000000000000000, 1.000000000000000000, -0.000000000000000000 ) ) ;
#374 = DIRECTION ( 'NONE',  ( -0.000000000000000000, 1.000000000000000000, -0.000000000000000000 ) ) ;
#375 = CARTESIAN_POINT ( 'NONE',  ( 1.224646799147353651E-15, 69.07500000000000284, -10.00000000000000355 ) ) ;
#376 = ORIENTED_EDGE ( 'NONE', *, *, #65, .T. ) ;
#377 = DIRECTION ( 'NONE',  ( -1.000000000000000000, 0.000000000000000000, 0.000000000000000000 ) ) ;
#378 = AXIS2_PLACEMENT_3D ( 'NONE', #518, #83, #236 ) ;
#379 = CIRCLE ( 'NONE', #118, 11.87500000000001066 ) ;
#380 = DIRECTION ( 'NONE',  ( 0.000000000000000000, 0.000000000000000000, 1.000000000000000000 ) ) ;
#381 = CARTESIAN_POINT ( 'NONE',  ( 0.000000000000000000, 65.79999999999999716, 0.000000000000000000 ) ) ;
#382 = VERTEX_POINT ( 'NONE', #709 ) ;
#383 = DIRECTION ( 'NONE',  ( -0.000000000000000000, 1.000000000000000000, -0.000000000000000000 ) ) ;
#384 = DIRECTION ( 'NONE',  ( -0.000000000000000000, 1.000000000000000000, -0.000000000000000000 ) ) ;
#385 = ORIENTED_EDGE ( 'NONE', *, *, #11, .T. ) ;
#386 = AXIS2_PLACEMENT_3D ( 'NONE', #167, #558, #394 ) ;
#387 = AXIS2_PLACEMENT_3D ( 'NONE', #77, #126, #291 ) ;
#388 = CARTESIAN_POINT ( 'NONE',  ( 1.071565949253934321E-15, 1.409558551655268221, -8.750000000000001776 ) ) ;
#389 = EDGE_CURVE ( 'NONE', #218, #281, #349, .T. ) ;
#390 = CIRCLE ( 'NONE', #165, 1.000000000000000888 ) ;
#391 = DIRECTION ( 'NONE',  ( 0.000000000000000000, 0.000000000000000000, 1.000000000000000000 ) ) ;
#392 = AXIS2_PLACEMENT_3D ( 'NONE', #243, #79, #204 ) ;
#393 =( GEOMETRIC_REPRESENTATION_CONTEXT ( 3 ) GLOBAL_UNCERTAINTY_ASSIGNED_CONTEXT ( ( #448 ) ) GLOBAL_UNIT_ASSIGNED_CONTEXT ( ( #330, #599, #316 ) ) REPRESENTATION_CONTEXT ( 'NONE', 'WORKASPACE' ) );
#394 = DIRECTION ( 'NONE',  ( 0.000000000000000000, 0.000000000000000000, 1.000000000000000000 ) ) ;
#395 = ORIENTED_EDGE ( 'NONE', *, *, #632, .F. ) ;
#396 = DIRECTION ( 'NONE',  ( -0.000000000000000000, 1.000000000000000000, -0.000000000000000000 ) ) ;
#397 = ADVANCED_FACE ( 'NONE', ( #72 ), #416, .T. ) ;
#398 = DIRECTION ( 'NONE',  ( -0.000000000000000000, 1.000000000000000000, -0.000000000000000000 ) ) ;
#399 = ORIENTED_EDGE ( 'NONE', *, *, #652, .F. ) ;
#400 = AXIS2_PLACEMENT_3D ( 'NONE', #671, #154, #609 ) ;
#401 = EDGE_LOOP ( 'NONE', ( #89, #313 ) ) ;
#402 = CARTESIAN_POINT ( 'NONE',  ( 1.194030629168669667E-15, 1.000000000000000000, -9.750000000000001776 ) ) ;
#403 = EDGE_CURVE ( 'NONE', #684, #688, #67, .T. ) ;
#404 = VERTEX_POINT ( 'NONE', #643 ) ;
#405 = ORIENTED_EDGE ( 'NONE', *, *, #603, .F. ) ;
#406 = AXIS2_PLACEMENT_3D ( 'NONE', #4, #164, #617 ) ;
#407 = FACE_OUTER_BOUND ( 'NONE', #704, .T. ) ;
#408 = LINE ( 'NONE', #130, #418 ) ;
#409 =( GEOMETRIC_REPRESENTATION_CONTEXT ( 3 ) GLOBAL_UNCERTAINTY_ASSIGNED_CONTEXT ( ( #730 ) ) GLOBAL_UNIT_ASSIGNED_CONTEXT ( ( #172, #175, #10 ) ) REPRESENTATION_CONTEXT ( 'NONE', 'WORKASPACE' ) );
#410 = ORIENTED_EDGE ( 'NONE', *, *, #181, .T. ) ;
#411 = AXIS2_PLACEMENT_3D ( 'NONE', #500, #659, #729 ) ;
#412 = CARTESIAN_POINT ( 'NONE',  ( 0.000000000000000000, 52.87500000000000711, 0.000000000000000000 ) ) ;
#413 = EDGE_CURVE ( 'NONE', #78, #627, #408, .T. ) ;
#414 = ORIENTED_EDGE ( 'NONE', *, *, #652, .T. ) ;
#415 = EDGE_CURVE ( 'NONE', #342, #464, #107, .T. ) ;
#416 = CYLINDRICAL_SURFACE ( 'NONE', #285, 10.00000000000000355 ) ;
#417 = ORIENTED_EDGE ( 'NONE', *, *, #570, .F. ) ;
#418 = VECTOR ( 'NONE', #127, 1000.000000000000000 ) ;
#419 = FACE_OUTER_BOUND ( 'NONE', #715, .T. ) ;
#420 = DIRECTION ( 'NONE',  ( -0.000000000000000000, 1.000000000000000000, -0.000000000000000000 ) ) ;
#421 = AXIS2_PLACEMENT_3D ( 'NONE', #205, #728, #430 ) ;
#422 = ORIENTED_EDGE ( 'NONE', *, *, #282, .F. ) ;
#423 = CARTESIAN_POINT ( 'NONE',  ( 0.000000000000000000, 65.79999999999999716, 0.000000000000000000 ) ) ;
#424 = ADVANCED_FACE ( 'NONE', ( #73, #534 ), #292, .F. ) ;
#425 = DIRECTION ( 'NONE',  ( -0.000000000000000000, 1.000000000000000000, -0.000000000000000000 ) ) ;
#426 = CYLINDRICAL_SURFACE ( 'NONE', #667, 8.150000000000000355 ) ;
#427 = EDGE_LOOP ( 'NONE', ( #461, #319, #68, #437 ) ) ;
#428 = DIRECTION ( 'NONE',  ( -0.000000000000000000, 1.000000000000000000, -0.000000000000000000 ) ) ;
#429 = DIRECTION ( 'NONE',  ( 0.000000000000000000, 0.000000000000000000, 1.000000000000000000 ) ) ;
#430 = DIRECTION ( 'NONE',  ( 0.000000000000000000, 0.000000000000000000, 1.000000000000000000 ) ) ;
#431 = DIRECTION ( 'NONE',  ( 0.000000000000000000, 0.000000000000000000, 1.000000000000000000 ) ) ;
#432 = VERTEX_POINT ( 'NONE', #520 ) ;
#433 = DIRECTION ( 'NONE',  ( -0.000000000000000000, 1.000000000000000000, -0.000000000000000000 ) ) ;
#434 = CARTESIAN_POINT ( 'NONE',  ( 0.000000000000000000, 65.79999999999999716, 10.00000000000000355 ) ) ;
#435 = DIRECTION ( 'NONE',  ( 0.000000000000000000, 0.000000000000000000, 1.000000000000000000 ) ) ;
#436 = EDGE_CURVE ( 'NONE', #343, #252, #163, .T. ) ;
#437 = ORIENTED_EDGE ( 'NONE', *, *, #338, .F. ) ;
#438 = CIRCLE ( 'NONE', #466, 1.000000000000000888 ) ;
#439 = PLANE ( 'NONE',  #346 ) ;
#440 = CARTESIAN_POINT ( 'NONE',  ( 0.000000000000000000, 0.000000000000000000, 0.000000000000000000 ) ) ;
#441 = LINE ( 'NONE', #322, #495 ) ;
#442 = PRODUCT ( 'BottlePlaceholder', 'BottlePlaceholder', '', ( #537 ) ) ;
#443 = EDGE_LOOP ( 'NONE', ( #702, #17, #410, #9 ) ) ;
#444 = SHAPE_DEFINITION_REPRESENTATION ( #499, #355 ) ;
#445 = EDGE_CURVE ( 'NONE', #235, #95, #523, .T. ) ;
#446 = DIRECTION ( 'NONE',  ( 0.000000000000000000, 0.000000000000000000, 1.000000000000000000 ) ) ;
#447 = TOROIDAL_SURFACE ( 'NONE', #161, 7.750000000000003553, 0.9999999999999995559 ) ;
#448 = UNCERTAINTY_MEASURE_WITH_UNIT (LENGTH_MEASURE( 1.000000000000000082E-05 ), #330, 'distance_accuracy_value', 'NONE');
#449 = FACE_OUTER_BOUND ( 'NONE', #286, .T. ) ;
#450 = CARTESIAN_POINT ( 'NONE',  ( 0.000000000000000000, 50.87500000000000000, 0.000000000000000000 ) ) ;
#451 = CARTESIAN_POINT ( 'NONE',  ( 0.000000000000000000, 77.27499999999999147, 0.000000000000000000 ) ) ;
#452 = PRODUCT_DEFINITION_FORMATION_WITH_SPECIFIED_SOURCE ( 'ANY', '', #442, .NOT_KNOWN. ) ;
#453 = ORIENTED_EDGE ( 'NONE', *, *, #271, .T. ) ;
#454 = SURFACE_STYLE_USAGE ( .BOTH. , #636 ) ;
#455 = ORIENTED_EDGE ( 'NONE', *, *, #467, .T. ) ;
#456 = CARTESIAN_POINT ( 'NONE',  ( 1.224646799147353651E-15, 52.87500000000000711, -10.00000000000000355 ) ) ;
#457 = EDGE_CURVE ( 'NONE', #323, #627, #249, .T. ) ;
#458 = AXIS2_PLACEMENT_3D ( 'NONE', #327, #250, #93 ) ;
#459 = ORIENTED_EDGE ( 'NONE', *, *, #74, .T. ) ;
#460 = CARTESIAN_POINT ( 'NONE',  ( 0.000000000000000000, 1.000000000000000888, 0.000000000000000000 ) ) ;
#461 = ORIENTED_EDGE ( 'NONE', *, *, #360, .F. ) ;
#462 = EDGE_CURVE ( 'NONE', #432, #5, #357, .T. ) ;
#463 = CARTESIAN_POINT ( 'NONE',  ( 0.000000000000000000, 2.168404344971008868E-16, 9.750000000000001776 ) ) ;
#464 = VERTEX_POINT ( 'NONE', #639 ) ;
#465 = ADVANCED_FACE ( 'NONE', ( #703 ), #350, .T. ) ;
#466 = AXIS2_PLACEMENT_3D ( 'NONE', #87, #302, #696 ) ;
#467 = EDGE_CURVE ( 'NONE', #13, #115, #133, .T. ) ;
#468 = EDGE_LOOP ( 'NONE', ( #244, #376, #47, #207 ) ) ;
#469 = DIRECTION ( 'NONE',  ( -0.000000000000000000, 1.000000000000000000, -0.000000000000000000 ) ) ;
#470 = ORIENTED_EDGE ( 'NONE', *, *, #352, .T. ) ;
#471 = DIRECTION ( 'NONE',  ( -0.000000000000000000, 1.000000000000000000, -0.000000000000000000 ) ) ;
#472 = ORIENTED_EDGE ( 'NONE', *, *, #65, .F. ) ;
#473 = AXIS2_PLACEMENT_3D ( 'NONE', #505, #225, #547 ) ;
#474 = DIRECTION ( 'NONE',  ( -0.000000000000000000, 1.000000000000000000, -0.000000000000000000 ) ) ;
#475 = EDGE_LOOP ( 'NONE', ( #486, #356 ) ) ;
#476 = AXIS2_PLACEMENT_3D ( 'NONE', #480, #578, #647 ) ;
#477 = CARTESIAN_POINT ( 'NONE',  ( 0.000000000000000000, 65.79999999999999716, 0.000000000000000000 ) ) ;
#478 = EDGE_CURVE ( 'NONE', #644, #633, #630, .T. ) ;
#479 = DIRECTION ( 'NONE',  ( -0.000000000000000000, 1.000000000000000000, -0.000000000000000000 ) ) ;
#480 = CARTESIAN_POINT ( 'NONE',  ( 0.000000000000000000, 69.07500000000000284, 0.000000000000000000 ) ) ;
#481 = EDGE_LOOP ( 'NONE', ( #540, #156, #160, #353 ) ) ;
#482 = CYLINDRICAL_SURFACE ( 'NONE', #392, 7.750000000000003553 ) ;
#483 = AXIS2_PLACEMENT_3D ( 'NONE', #598, #654, #248 ) ;
#484 = CYLINDRICAL_SURFACE ( 'NONE', #421, 8.750000000000001776 ) ;
#485 = CARTESIAN_POINT ( 'NONE',  ( 0.000000000000000000, 46.50000000000000000, 0.000000000000000000 ) ) ;
#486 = ORIENTED_EDGE ( 'NONE', *, *, #19, .F. ) ;
#487 = PLANE ( 'NONE',  #620 ) ;
#488 = DIRECTION ( 'NONE',  ( -0.000000000000000000, 1.000000000000000000, -0.000000000000000000 ) ) ;
#489 = FACE_BOUND ( 'NONE', #198, .T. ) ;
#490 = ORIENTED_EDGE ( 'NONE', *, *, #51, .F. ) ;
#491 = EDGE_CURVE ( 'NONE', #432, #218, #670, .T. ) ;
#492 = DIRECTION ( 'NONE',  ( -0.000000000000000000, 1.000000000000000000, -0.000000000000000000 ) ) ;
#493 = DIRECTION ( 'NONE',  ( -0.000000000000000000, 1.000000000000000000, -0.000000000000000000 ) ) ;
#494 = EDGE_LOOP ( 'NONE', ( #490, #414, #453, #141 ) ) ;
#495 = VECTOR ( 'NONE', #206, 1000.000000000000000 ) ;
#496 = ADVANCED_FACE ( 'NONE', ( #721 ), #321, .T. ) ;
#497 = AXIS2_PLACEMENT_3D ( 'NONE', #158, #548, #270 ) ;
#498 = FACE_OUTER_BOUND ( 'NONE', #182, .T. ) ;
#499 = PRODUCT_DEFINITION_SHAPE ( 'NONE', 'NONE',  #294 ) ;
#500 = CARTESIAN_POINT ( 'NONE',  ( 0.000000000000000000, 0.000000000000000000, 0.000000000000000000 ) ) ;
#501 = FACE_OUTER_BOUND ( 'NONE', #468, .T. ) ;
#502 = CIRCLE ( 'NONE', #406, 11.87500000000001066 ) ;
#503 = DIRECTION ( 'NONE',  ( -0.000000000000000000, 1.000000000000000000, -0.000000000000000000 ) ) ;
#504 = AXIS2_PLACEMENT_3D ( 'NONE', #561, #224, #284 ) ;
#505 = CARTESIAN_POINT ( 'NONE',  ( 0.000000000000000000, 52.87500000000000711, 0.000000000000000000 ) ) ;
#506 = ORIENTED_EDGE ( 'NONE', *, *, #155, .F. ) ;
#507 = DIRECTION ( 'NONE',  ( 1.000000000000000000, 0.000000000000000000, 1.224646799147353207E-16 ) ) ;
#508 = ORIENTED_EDGE ( 'NONE', *, *, #209, .T. ) ;
#509 = PRESENTATION_STYLE_ASSIGNMENT (( #454 ) ) ;
#510 = CIRCLE ( 'NONE', #192, 7.500000000000003553 ) ;
#511 = ORIENTED_EDGE ( 'NONE', *, *, #338, .T. ) ;
#512 = VECTOR ( 'NONE', #474, 1000.000000000000000 ) ;
#513 = EDGE_CURVE ( 'NONE', #103, #581, #586, .T. ) ;
#514 = AXIS2_PLACEMENT_3D ( 'NONE', #477, #593, #310 ) ;
#515 = AXIS2_PLACEMENT_3D ( 'NONE', #717, #262, #665 ) ;
#516 = ORIENTED_EDGE ( 'NONE', *, *, #128, .T. ) ;
#517 = ORIENTED_EDGE ( 'NONE', *, *, #125, .F. ) ;
#518 = CARTESIAN_POINT ( 'NONE',  ( 0.000000000000000000, 69.07500000000000284, 0.000000000000000000 ) ) ;
#519 = ADVANCED_FACE ( 'NONE', ( #311 ), #365, .T. ) ;
#520 = CARTESIAN_POINT ( 'NONE',  ( 0.000000000000000000, 52.87500000000000711, 10.00000000000000355 ) ) ;
#521 = ORIENTED_EDGE ( 'NONE', *, *, #726, .T. ) ;
#522 = CIRCLE ( 'NONE', #562, 0.9999999999999991118 ) ;
#523 = LINE ( 'NONE', #21, #574 ) ;
#524 = AXIS2_PLACEMENT_3D ( 'NONE', #402, #507, #344 ) ;
#525 = ORIENTED_EDGE ( 'NONE', *, *, #279, .F. ) ;
#526 = DIRECTION ( 'NONE',  ( -0.000000000000000000, 1.000000000000000000, -0.000000000000000000 ) ) ;
#527 = VERTEX_POINT ( 'NONE', #655 ) ;
#528 = DIRECTION ( 'NONE',  ( -0.000000000000000000, 1.000000000000000000, -0.000000000000000000 ) ) ;
#529 = ADVANCED_FACE ( 'NONE', ( #31 ), #200, .T. ) ;
#530 = ORIENTED_EDGE ( 'NONE', *, *, #260, .F. ) ;
#531 = FACE_OUTER_BOUND ( 'NONE', #653, .T. ) ;
#532 = DIRECTION ( 'NONE',  ( -0.000000000000000000, 1.000000000000000000, -0.000000000000000000 ) ) ;
#533 = CIRCLE ( 'NONE', #184, 8.750000000000001776 ) ;
#534 = FACE_OUTER_BOUND ( 'NONE', #623, .T. ) ;
#535 = ORIENTED_EDGE ( 'NONE', *, *, #491, .F. ) ;
#536 = CARTESIAN_POINT ( 'NONE',  ( 0.000000000000000000, 77.27499999999999147, 0.000000000000000000 ) ) ;
#537 = PRODUCT_CONTEXT ( 'NONE', #700, 'mechanical' ) ;
#538 = DIRECTION ( 'NONE',  ( -0.000000000000000000, 1.000000000000000000, -0.000000000000000000 ) ) ;
#539 = DIRECTION ( 'NONE',  ( -0.000000000000000000, 1.000000000000000000, -0.000000000000000000 ) ) ;
#540 = ORIENTED_EDGE ( 'NONE', *, *, #628, .T. ) ;
#541 = CARTESIAN_POINT ( 'NONE',  ( 9.491012693391991731E-16, 50.87500000000000000, -7.750000000000003553 ) ) ;
#542 = DIRECTION ( 'NONE',  ( -0.000000000000000000, 1.000000000000000000, -0.000000000000000000 ) ) ;
#543 = CARTESIAN_POINT ( 'NONE',  ( 0.000000000000000000, 1.409558551655268221, 8.750000000000001776 ) ) ;
#544 = ORIENTED_EDGE ( 'NONE', *, *, #557, .T. ) ;
#545 = FACE_OUTER_BOUND ( 'NONE', #113, .T. ) ;
#546 = EDGE_CURVE ( 'NONE', #527, #115, #690, .T. ) ;
#547 = DIRECTION ( 'NONE',  ( 0.000000000000000000, 0.000000000000000000, 1.000000000000000000 ) ) ;
#548 = DIRECTION ( 'NONE',  ( 1.000000000000000000, 0.000000000000000000, 1.224646799147353207E-16 ) ) ;
#549 = DIRECTION ( 'NONE',  ( 0.000000000000000000, 0.000000000000000000, 1.000000000000000000 ) ) ;
#550 = ADVANCED_FACE ( 'NONE', ( #44 ), #139, .T. ) ;
#551 = EDGE_LOOP ( 'NONE', ( #234, #336, #122, #535 ) ) ;
#552 = AXIS2_PLACEMENT_3D ( 'NONE', #140, #361, #354 ) ;
#553 = CARTESIAN_POINT ( 'NONE',  ( 0.000000000000000000, 77.27499999999999147, 7.200000000000000178 ) ) ;
#554 = DIRECTION ( 'NONE',  ( 0.000000000000000000, 0.000000000000000000, 1.000000000000000000 ) ) ;
#555 = VECTOR ( 'NONE', #492, 1000.000000000000000 ) ;
#556 = DIRECTION ( 'NONE',  ( -0.000000000000000000, 1.000000000000000000, -0.000000000000000000 ) ) ;
#557 = EDGE_CURVE ( 'NONE', #404, #527, #611, .T. ) ;
#558 = DIRECTION ( 'NONE',  ( -0.000000000000000000, 1.000000000000000000, -0.000000000000000000 ) ) ;
#559 = DIRECTION ( 'NONE',  ( -0.000000000000000000, 1.000000000000000000, -0.000000000000000000 ) ) ;
#560 = ORIENTED_EDGE ( 'NONE', *, *, #673, .F. ) ;
#561 = CARTESIAN_POINT ( 'NONE',  ( 0.000000000000000000, 0.000000000000000000, 0.000000000000000000 ) ) ;
#562 = AXIS2_PLACEMENT_3D ( 'NONE', #724, #263, #102 ) ;
#563 = ADVANCED_FACE ( 'NONE', ( #104 ), #177, .T. ) ;
#564 = CLOSED_SHELL ( 'NONE', ( #213, #465, #289, #686, #584, #625, #550, #195, #496, #157, #119, #106, #731, #397, #424, #220, #231, #185, #519, #616, #693, #685, #529, #3, #348, #138, #563 ) ) ;
#565 = CYLINDRICAL_SURFACE ( 'NONE', #386, 8.750000000000001776 ) ;
#566 = VERTEX_POINT ( 'NONE', #86 ) ;
#567 = DIRECTION ( 'NONE',  ( -0.000000000000000000, 1.000000000000000000, -0.000000000000000000 ) ) ;
#568 = ORIENTED_EDGE ( 'NONE', *, *, #19, .T. ) ;
#569 = DIRECTION ( 'NONE',  ( 0.000000000000000000, 0.000000000000000000, 1.000000000000000000 ) ) ;
#570 = EDGE_CURVE ( 'NONE', #25, #61, #50, .T. ) ;
#571 = CIRCLE ( 'NONE', #246, 0.9999999999999991118 ) ;
#572 = ORIENTED_EDGE ( 'NONE', *, *, #76, .T. ) ;
#573 = CARTESIAN_POINT ( 'NONE',  ( 0.000000000000000000, 46.50000000000000000, 7.500000000000003553 ) ) ;
#574 = VECTOR ( 'NONE', #241, 1000.000000000000000 ) ;
#575 = AXIS2_PLACEMENT_3D ( 'NONE', #142, #471, #253 ) ;
#576 = AXIS2_PLACEMENT_3D ( 'NONE', #536, #259, #596 ) ;
#577 = CARTESIAN_POINT ( 'NONE',  ( 0.000000000000000000, 65.79999999999999716, 0.000000000000000000 ) ) ;
#578 = DIRECTION ( 'NONE',  ( -0.000000000000000000, 1.000000000000000000, -0.000000000000000000 ) ) ;
#579 = EDGE_LOOP ( 'NONE', ( #568, #588, #395, #506 ) ) ;
#580 = DIRECTION ( 'NONE',  ( 0.000000000000000000, 0.000000000000000000, 1.000000000000000000 ) ) ;
#581 = VERTEX_POINT ( 'NONE', #553 ) ;
#582 = CYLINDRICAL_SURFACE ( 'NONE', #618, 7.750000000000003553 ) ;
#583 = ORIENTED_EDGE ( 'NONE', *, *, #557, .F. ) ;
#584 = ADVANCED_FACE ( 'NONE', ( #498 ), #484, .F. ) ;
#585 = CIRCLE ( 'NONE', #296, 11.87500000000000888 ) ;
#586 = CIRCLE ( 'NONE', #82, 7.200000000000000178 ) ;
#587 = DIRECTION ( 'NONE',  ( 0.000000000000000000, -0.000000000000000000, -1.000000000000000000 ) ) ;
#588 = ORIENTED_EDGE ( 'NONE', *, *, #341, .T. ) ;
#589 = LINE ( 'NONE', #39, #712 ) ;
#590 = DIRECTION ( 'NONE',  ( 0.000000000000000000, 0.000000000000000000, 1.000000000000000000 ) ) ;
#591 = ORIENTED_EDGE ( 'NONE', *, *, #513, .F. ) ;
#592 = EDGE_CURVE ( 'NONE', #149, #382, #650, .T. ) ;
#593 = DIRECTION ( 'NONE',  ( -0.000000000000000000, 1.000000000000000000, -0.000000000000000000 ) ) ;
#594 = CARTESIAN_POINT ( 'NONE',  ( 0.000000000000000000, 1.409558551655269554, 7.750000000000003553 ) ) ;
#595 = DIRECTION ( 'NONE',  ( -0.000000000000000000, 1.000000000000000000, 0.000000000000000000 ) ) ;
#596 = DIRECTION ( 'NONE',  ( 0.000000000000000000, 0.000000000000000000, 1.000000000000000000 ) ) ;
#597 = ORIENTED_EDGE ( 'NONE', *, *, #333, .T. ) ;
#598 = CARTESIAN_POINT ( 'NONE',  ( 0.000000000000000000, 50.87500000000000000, 0.000000000000000000 ) ) ;
#599 =( NAMED_UNIT ( * ) PLANE_ANGLE_UNIT ( ) SI_UNIT ( $, .RADIAN. ) );
#600 = CARTESIAN_POINT ( 'NONE',  ( 0.000000000000000000, 50.87500000000000000, 0.000000000000000000 ) ) ;
#601 = DIRECTION ( 'NONE',  ( -0.000000000000000000, 1.000000000000000000, -0.000000000000000000 ) ) ;
#602 = AXIS2_PLACEMENT_3D ( 'NONE', #666, #656, #148 ) ;
#603 = EDGE_CURVE ( 'NONE', #95, #527, #12, .T. ) ;
#604 = AXIS2_PLACEMENT_3D ( 'NONE', #451, #183, #114 ) ;
#605 = EDGE_LOOP ( 'NONE', ( #645, #108, #385, #63 ) ) ;
#606 = CARTESIAN_POINT ( 'NONE',  ( 0.000000000000000000, 46.50000000000000000, 11.87500000000000888 ) ) ;
#607 = EDGE_CURVE ( 'NONE', #61, #25, #30, .T. ) ;
#608 = CARTESIAN_POINT ( 'NONE',  ( 0.000000000000000000, 89.97499999999999432, 0.000000000000000000 ) ) ;
#609 = DIRECTION ( 'NONE',  ( 0.000000000000000000, 0.000000000000000000, 1.000000000000000000 ) ) ;
#610 = ORIENTED_EDGE ( 'NONE', *, *, #445, .F. ) ;
#611 = LINE ( 'NONE', #370, #555 ) ;
#612 = CARTESIAN_POINT ( 'NONE',  ( 0.000000000000000000, 65.79999999999999716, 7.200000000000000178 ) ) ;
#613 = CIRCLE ( 'NONE', #124, 7.750000000000003553 ) ;
#614 = ORIENTED_EDGE ( 'NONE', *, *, #607, .F. ) ;
#615 = AXIS2_PLACEMENT_3D ( 'NONE', #295, #420, #580 ) ;
#616 = ADVANCED_FACE ( 'NONE', ( #449 ), #60, .T. ) ;
#617 = DIRECTION ( 'NONE',  ( 0.000000000000000000, 0.000000000000000000, 1.000000000000000000 ) ) ;
#618 = AXIS2_PLACEMENT_3D ( 'NONE', #96, #34, #314 ) ;
#619 = AXIS2_PLACEMENT_3D ( 'NONE', #306, #532, #661 ) ;
#620 = AXIS2_PLACEMENT_3D ( 'NONE', #649, #658, #716 ) ;
#621 = LINE ( 'NONE', #680, #221 ) ;
#622 = CARTESIAN_POINT ( 'NONE',  ( 0.000000000000000000, 1.000000000000000888, 0.000000000000000000 ) ) ;
#623 = EDGE_LOOP ( 'NONE', ( #212, #511 ) ) ;
#624 = CARTESIAN_POINT ( 'NONE',  ( 0.000000000000000000, 50.87500000000000000, 7.500000000000003553 ) ) ;
#625 = ADVANCED_FACE ( 'NONE', ( #501 ), #447, .F. ) ;
#626 = DIRECTION ( 'NONE',  ( 0.000000000000000000, 0.000000000000000000, 1.000000000000000000 ) ) ;
#627 = VERTEX_POINT ( 'NONE', #388 ) ;
#628 = EDGE_CURVE ( 'NONE', #23, #193, #613, .T. ) ;
#629 = CIRCLE ( 'NONE', #400, 8.150000000000000355 ) ;
#630 = CIRCLE ( 'NONE', #137, 10.87500000000000888 ) ;
#631 = CIRCLE ( 'NONE', #166, 4.375000000000003553 ) ;
#632 = EDGE_CURVE ( 'NONE', #235, #404, #502, .T. ) ;
#633 = VERTEX_POINT ( 'NONE', #331 ) ;
#634 = DIRECTION ( 'NONE',  ( 1.224646799147353454E-16, 0.000000000000000000, -1.000000000000000000 ) ) ;
#635 = ORIENTED_EDGE ( 'NONE', *, *, #478, .T. ) ;
#636 = SURFACE_SIDE_STYLE ('',( #8 ) ) ;
#637 = AXIS2_PLACEMENT_3D ( 'NONE', #274, #559, #626 ) ;
#638 = ORIENTED_EDGE ( 'NONE', *, *, #457, .F. ) ;
#639 = CARTESIAN_POINT ( 'NONE',  ( 9.980871413050929957E-16, 69.07500000000000284, -8.150000000000000355 ) ) ;
#640 = CIRCLE ( 'NONE', #504, 10.87500000000000888 ) ;
#641 = CARTESIAN_POINT ( 'NONE',  ( 1.224646799147353651E-15, 65.79999999999999716, -10.00000000000000355 ) ) ;
#642 = ORIENTED_EDGE ( 'NONE', *, *, #178, .T. ) ;
#643 = CARTESIAN_POINT ( 'NONE',  ( 1.454268073987483237E-15, 1.000000000000000888, -11.87500000000001066 ) ) ;
#644 = VERTEX_POINT ( 'NONE', #339 ) ;
#645 = ORIENTED_EDGE ( 'NONE', *, *, #413, .F. ) ;
#646 = AXIS2_PLACEMENT_3D ( 'NONE', #600, #488, #217 ) ;
#647 = DIRECTION ( 'NONE',  ( 0.000000000000000000, 0.000000000000000000, 1.000000000000000000 ) ) ;
#648 = ORIENTED_EDGE ( 'NONE', *, *, #22, .T. ) ;
#649 = CARTESIAN_POINT ( 'NONE',  ( 7.500000000000003553, 50.87500000000000000, 0.000000000000000000 ) ) ;
#650 = CIRCLE ( 'NONE', #619, 7.750000000000003553 ) ;
#651 = CARTESIAN_POINT ( 'NONE',  ( 0.000000000000000000, 1.409558551655268221, 0.000000000000000000 ) ) ;
#652 = EDGE_CURVE ( 'NONE', #78, #566, #533, .T. ) ;
#653 = EDGE_LOOP ( 'NONE', ( #560, #359, #145, #203 ) ) ;
#654 = DIRECTION ( 'NONE',  ( -0.000000000000000000, 1.000000000000000000, -0.000000000000000000 ) ) ;
#655 = CARTESIAN_POINT ( 'NONE',  ( 1.454268073987483040E-15, 46.50000000000000000, -11.87500000000000888 ) ) ;
#656 = DIRECTION ( 'NONE',  ( 0.000000000000000000, -1.000000000000000000, 0.000000000000000000 ) ) ;
#657 = ORIENTED_EDGE ( 'NONE', *, *, #603, .T. ) ;
#658 = DIRECTION ( 'NONE',  ( -0.000000000000000000, 1.000000000000000000, 0.000000000000000000 ) ) ;
#659 = DIRECTION ( 'NONE',  ( 0.000000000000000000, 0.000000000000000000, 1.000000000000000000 ) ) ;
#660 = EDGE_CURVE ( 'NONE', #115, #13, #510, .T. ) ;
#661 = DIRECTION ( 'NONE',  ( 0.000000000000000000, 0.000000000000000000, 1.000000000000000000 ) ) ;
#662 = CARTESIAN_POINT ( 'NONE',  ( 0.000000000000000000, 1.000000000000000888, 11.87500000000001066 ) ) ;
#663 = ORIENTED_EDGE ( 'NONE', *, *, #413, .T. ) ;
#664 = DIRECTION ( 'NONE',  ( -0.000000000000000000, 1.000000000000000000, -0.000000000000000000 ) ) ;
#665 = DIRECTION ( 'NONE',  ( 0.000000000000000000, 0.000000000000000000, 1.000000000000000000 ) ) ;
#666 = CARTESIAN_POINT ( 'NONE',  ( 8.150000000000002132, 77.27499999999999147, 0.000000000000000000 ) ) ;
#667 = AXIS2_PLACEMENT_3D ( 'NONE', #381, #384, #435 ) ;
#668 = CIRCLE ( 'NONE', #216, 8.750000000000001776 ) ;
#669 = ORIENTED_EDGE ( 'NONE', *, *, #279, .T. ) ;
#670 = LINE ( 'NONE', #434, #110 ) ;
#671 = CARTESIAN_POINT ( 'NONE',  ( 0.000000000000000000, 69.07500000000000284, 0.000000000000000000 ) ) ;
#672 = EDGE_LOOP ( 'NONE', ( #367, #669, #572, #242 ) ) ;
#673 = EDGE_CURVE ( 'NONE', #103, #688, #621, .T. ) ;
#674 = DIRECTION ( 'NONE',  ( -0.000000000000000000, 1.000000000000000000, 0.000000000000000000 ) ) ;
#675 = DIRECTION ( 'NONE',  ( 0.000000000000000000, -1.000000000000000000, 0.000000000000000000 ) ) ;
#676 = AXIS2_PLACEMENT_3D ( 'NONE', #317, #542, #223 ) ;
#677 = AXIS2_PLACEMENT_3D ( 'NONE', #651, #15, #590 ) ;
#678 = CARTESIAN_POINT ( 'NONE',  ( 0.000000000000000000, 1.409558551655269554, 0.000000000000000000 ) ) ;
#679 = AXIS2_PLACEMENT_3D ( 'NONE', #90, #433, #194 ) ;
#680 = CARTESIAN_POINT ( 'NONE',  ( 8.817456953860942303E-16, 65.79999999999999716, -7.200000000000000178 ) ) ;
#681 = ORIENTED_EDGE ( 'NONE', *, *, #632, .T. ) ;
#682 = FACE_BOUND ( 'NONE', #258, .T. ) ;
#683 = FACE_OUTER_BOUND ( 'NONE', #171, .T. ) ;
#684 = VERTEX_POINT ( 'NONE', #335 ) ;
#685 = ADVANCED_FACE ( 'NONE', ( #1 ), #565, .F. ) ;
#686 = ADVANCED_FACE ( 'NONE', ( #53 ), #92, .T. ) ;
#687 = CIRCLE ( 'NONE', #196, 7.750000000000003553 ) ;
#688 = VERTEX_POINT ( 'NONE', #273 ) ;
#689 = DIRECTION ( 'NONE',  ( 1.000000000000000000, 0.000000000000000000, 1.224646799147353207E-16 ) ) ;
#690 = CIRCLE ( 'NONE', #497, 4.375000000000003553 ) ;
#691 = ORIENTED_EDGE ( 'NONE', *, *, #181, .F. ) ;
#692 = DIRECTION ( 'NONE',  ( -0.000000000000000000, 1.000000000000000000, -0.000000000000000000 ) ) ;
#693 = ADVANCED_FACE ( 'NONE', ( #683 ), #66, .F. ) ;
#694 = ORIENTED_EDGE ( 'NONE', *, *, #51, .T. ) ;
#695 = CARTESIAN_POINT ( 'NONE',  ( 1.071565949253934321E-15, 1.000000000000000888, -8.750000000000001776 ) ) ;
#696 = DIRECTION ( 'NONE',  ( 1.224646799147353454E-16, 0.000000000000000000, -1.000000000000000000 ) ) ;
#697 = VERTEX_POINT ( 'NONE', #275 ) ;
#698 = CIRCLE ( 'NONE', #378, 10.00000000000000355 ) ;
#699 = AXIS2_PLACEMENT_3D ( 'NONE', #229, #689, #634 ) ;
#700 = APPLICATION_CONTEXT ( 'automotive_design' ) ;
#701 = DIRECTION ( 'NONE',  ( 0.000000000000000000, 0.000000000000000000, 1.000000000000000000 ) ) ;
#702 = ORIENTED_EDGE ( 'NONE', *, *, #178, .F. ) ;
#703 = FACE_OUTER_BOUND ( 'NONE', #168, .T. ) ;
#704 = EDGE_LOOP ( 'NONE', ( #283, #635, #226, #38 ) ) ;
#705 = FACE_BOUND ( 'NONE', #372, .T. ) ;
#706 = EDGE_CURVE ( 'NONE', #5, #432, #308, .T. ) ;
#707 = AXIS2_PLACEMENT_3D ( 'NONE', #55, #280, #446 ) ;
#708 = AXIS2_PLACEMENT_3D ( 'NONE', #251, #366, #587 ) ;
#709 = CARTESIAN_POINT ( 'NONE',  ( 0.000000000000000000, 52.87500000000000711, 7.750000000000003553 ) ) ;
#710 = ORIENTED_EDGE ( 'NONE', *, *, #88, .T. ) ;
#711 = FACE_OUTER_BOUND ( 'NONE', #304, .T. ) ;
#712 = VECTOR ( 'NONE', #428, 1000.000000000000000 ) ;
#713 = CARTESIAN_POINT ( 'NONE',  ( 0.000000000000000000, 46.50000000000000000, 0.000000000000000000 ) ) ;
#714 = DIRECTION ( 'NONE',  ( -0.000000000000000000, 1.000000000000000000, -0.000000000000000000 ) ) ;
#715 = EDGE_LOOP ( 'NONE', ( #722, #642, #309, #691 ) ) ;
#716 = DIRECTION ( 'NONE',  ( 0.000000000000000000, 0.000000000000000000, 1.000000000000000000 ) ) ;
#717 = CARTESIAN_POINT ( 'NONE',  ( 0.000000000000000000, 65.79999999999999716, 0.000000000000000000 ) ) ;
#718 = DIRECTION ( 'NONE',  ( -0.000000000000000000, 1.000000000000000000, -0.000000000000000000 ) ) ;
#719 = EDGE_LOOP ( 'NONE', ( #232, #530 ) ) ;
#720 = CYLINDRICAL_SURFACE ( 'NONE', #288, 11.87500000000001066 ) ;
#721 = FACE_OUTER_BOUND ( 'NONE', #551, .T. ) ;
#722 = ORIENTED_EDGE ( 'NONE', *, *, #415, .T. ) ;
#723 = DIRECTION ( 'NONE',  ( -0.000000000000000000, 1.000000000000000000, -0.000000000000000000 ) ) ;
#724 = CARTESIAN_POINT ( 'NONE',  ( 0.000000000000000000, 1.000000000000000000, 9.750000000000001776 ) ) ;
#725 = AXIS2_PLACEMENT_3D ( 'NONE', #143, #256, #101 ) ;
#726 = EDGE_CURVE ( 'NONE', #323, #61, #571, .T. ) ;
#727 = EDGE_LOOP ( 'NONE', ( #129, #517 ) ) ;
#728 = DIRECTION ( 'NONE',  ( -0.000000000000000000, 1.000000000000000000, -0.000000000000000000 ) ) ;
#729 = DIRECTION ( 'NONE',  ( 1.000000000000000000, 0.000000000000000000, 0.000000000000000000 ) ) ;
#730 = UNCERTAINTY_MEASURE_WITH_UNIT (LENGTH_MEASURE( 1.000000000000000082E-05 ), #172, 'distance_accuracy_value', 'NONE');
#731 = ADVANCED_FACE ( 'NONE', ( #40, #272 ), #439, .F. ) ;
#732 = CARTESIAN_POINT ( 'NONE',  ( 7.750000000000003553, 2.409558551655269110, 0.000000000000000000 ) ) ;
#733 = AXIS2_PLACEMENT_3D ( 'NONE', #732, #675, #111 ) ;
ENDSEC;
END-ISO-10303-21;
