ISO-10303-21;
HEADER;
FILE_DESCRIPTION (( 'STEP AP214' ),
    '1' );
FILE_NAME ('PeltierPlate.STEP',
    '2025-11-18T22:03:27',
    ( '' ),
    ( '' ),
    'SwSTEP 2.0',
    'SolidWorks 2025',
    '' );
FILE_SCHEMA (( 'AUTOMOTIVE_DESIGN' ));
ENDSEC;

DATA;
#1 = CARTESIAN_POINT ( 'NONE',  ( 25.00000000000000711, -24.99999999999998579, 0.000000000000000000 ) ) ;
#2 = DIRECTION ( 'NONE',  ( -1.000000000000000000, -2.775557561562891351E-16, 0.000000000000000000 ) ) ;
#3 = DIRECTION ( 'NONE',  ( -0.000000000000000000, -0.000000000000000000, -1.000000000000000000 ) ) ;
#4 = EDGE_CURVE ( 'NONE', #116, #35, #157, .T. ) ;
#5 = DIRECTION ( 'NONE',  ( 0.000000000000000000, 1.000000000000000000, 0.000000000000000000 ) ) ;
#6 = VECTOR ( 'NONE', #121, 1000.000000000000000 ) ;
#7 = AXIS2_PLACEMENT_3D ( 'NONE', #176, #43, #89 ) ;
#8 =( NAMED_UNIT ( * ) SI_UNIT ( $, .STERADIAN. ) SOLID_ANGLE_UNIT ( ) );
#9 = ORIENTED_EDGE ( 'NONE', *, *, #91, .F. ) ;
#10 = ORIENTED_EDGE ( 'NONE', *, *, #179, .T. ) ;
#11 = DIRECTION ( 'NONE',  ( -0.000000000000000000, -0.000000000000000000, -1.000000000000000000 ) ) ;
#12 = CARTESIAN_POINT ( 'NONE',  ( 25.00000000000000711, -24.99999999999998579, 3.200000000000000178 ) ) ;
#13 = MANIFOLD_SOLID_BREP ( 'Boss-Extrude1', #130 ) ;
#14 = LINE ( 'NONE', #28, #88 ) ;
#15 = PRODUCT_DEFINITION ( 'UNKNOWN', '', #58, #111 ) ;
#16 = CARTESIAN_POINT ( 'NONE',  ( -24.99999999999999289, 25.00000000000000000, 0.000000000000000000 ) ) ;
#17 =( NAMED_UNIT ( * ) PLANE_ANGLE_UNIT ( ) SI_UNIT ( $, .RADIAN. ) );
#18 = EDGE_CURVE ( 'NONE', #50, #184, #117, .T. ) ;
#19 = LINE ( 'NONE', #1, #37 ) ;
#20 = VECTOR ( 'NONE', #5, 1000.000000000000000 ) ;
#21 = DIRECTION ( 'NONE',  ( -1.000000000000000000, 0.000000000000000000, 0.000000000000000000 ) ) ;
#22 = ORIENTED_EDGE ( 'NONE', *, *, #45, .T. ) ;
#23 = ORIENTED_EDGE ( 'NONE', *, *, #100, .F. ) ;
#24 =( LENGTH_UNIT ( ) NAMED_UNIT ( * ) SI_UNIT ( .MILLI., .METRE. ) );
#25 = LINE ( 'NONE', #53, #181 ) ;
#26 = FILL_AREA_STYLE_COLOUR ( '', #163 ) ;
#27 = EDGE_CURVE ( 'NONE', #95, #36, #146, .T. ) ;
#28 = CARTESIAN_POINT ( 'NONE',  ( 25.00000000000000711, 25.00000000000001421, 3.200000000000000178 ) ) ;
#29 = FACE_OUTER_BOUND ( 'NONE', #129, .T. ) ;
#30 = LINE ( 'NONE', #90, #63 ) ;
#31 = CARTESIAN_POINT ( 'NONE',  ( 25.00000000000000711, 25.00000000000001421, 0.000000000000000000 ) ) ;
#32 = LINE ( 'NONE', #16, #145 ) ;
#33 = EDGE_LOOP ( 'NONE', ( #158, #23, #56, #22 ) ) ;
#34 = DIRECTION ( 'NONE',  ( 0.000000000000000000, 0.000000000000000000, 1.000000000000000000 ) ) ;
#35 = VERTEX_POINT ( 'NONE', #173 ) ;
#36 = VERTEX_POINT ( 'NONE', #84 ) ;
#37 = VECTOR ( 'NONE', #153, 1000.000000000000000 ) ;
#38 = ORIENTED_EDGE ( 'NONE', *, *, #154, .F. ) ;
#39 = ORIENTED_EDGE ( 'NONE', *, *, #70, .T. ) ;
#40 = AXIS2_PLACEMENT_3D ( 'NONE', #61, #106, #75 ) ;
#41 = ORIENTED_EDGE ( 'NONE', *, *, #27, .T. ) ;
#42 = DIRECTION ( 'NONE',  ( 1.000000000000000000, 2.775557561562891351E-16, 0.000000000000000000 ) ) ;
#43 = DIRECTION ( 'NONE',  ( 1.000000000000000000, 0.000000000000000000, 0.000000000000000000 ) ) ;
#44 =( LENGTH_UNIT ( ) NAMED_UNIT ( * ) SI_UNIT ( .MILLI., .METRE. ) );
#45 = EDGE_CURVE ( 'NONE', #36, #102, #25, .T. ) ;
#46 = CARTESIAN_POINT ( 'NONE',  ( -24.99999999999999289, -25.00000000000000000, 3.200000000000000178 ) ) ;
#47 = DIRECTION ( 'NONE',  ( 1.000000000000000000, 2.775557561562891351E-16, 0.000000000000000000 ) ) ;
#48 = PLANE ( 'NONE',  #66 ) ;
#49 = ORIENTED_EDGE ( 'NONE', *, *, #57, .F. ) ;
#50 = VERTEX_POINT ( 'NONE', #186 ) ;
#51 = EDGE_LOOP ( 'NONE', ( #171, #49, #124, #99 ) ) ;
#52 = PRODUCT ( 'PeltierPlate', 'PeltierPlate', '', ( #94 ) ) ;
#53 = CARTESIAN_POINT ( 'NONE',  ( -24.99999999999999289, 25.00000000000000000, 3.200000000000000178 ) ) ;
#54 =( NAMED_UNIT ( * ) SI_UNIT ( $, .STERADIAN. ) SOLID_ANGLE_UNIT ( ) );
#55 = SURFACE_STYLE_FILL_AREA ( #87 ) ;
#56 = ORIENTED_EDGE ( 'NONE', *, *, #70, .F. ) ;
#57 = EDGE_CURVE ( 'NONE', #35, #184, #69, .T. ) ;
#58 = PRODUCT_DEFINITION_FORMATION_WITH_SPECIFIED_SOURCE ( 'ANY', '', #52, .NOT_KNOWN. ) ;
#59 =( NAMED_UNIT ( * ) PLANE_ANGLE_UNIT ( ) SI_UNIT ( $, .RADIAN. ) );
#60 = CARTESIAN_POINT ( 'NONE',  ( -24.99999999999999289, 25.00000000000000000, 0.000000000000000000 ) ) ;
#61 = CARTESIAN_POINT ( 'NONE',  ( 0.000000000000000000, 0.000000000000000000, 0.000000000000000000 ) ) ;
#62 = PLANE ( 'NONE',  #93 ) ;
#63 = VECTOR ( 'NONE', #120, 1000.000000000000000 ) ;
#64 = ORIENTED_EDGE ( 'NONE', *, *, #127, .F. ) ;
#65 = ADVANCED_FACE ( 'NONE', ( #108 ), #162, .F. ) ;
#66 = AXIS2_PLACEMENT_3D ( 'NONE', #112, #150, #168 ) ;
#67 = ORIENTED_EDGE ( 'NONE', *, *, #179, .F. ) ;
#68 =( GEOMETRIC_REPRESENTATION_CONTEXT ( 3 ) GLOBAL_UNCERTAINTY_ASSIGNED_CONTEXT ( ( #81 ) ) GLOBAL_UNIT_ASSIGNED_CONTEXT ( ( #24, #59, #54 ) ) REPRESENTATION_CONTEXT ( 'NONE', 'WORKASPACE' ) );
#69 = LINE ( 'NONE', #12, #123 ) ;
#70 = EDGE_CURVE ( 'NONE', #36, #116, #165, .T. ) ;
#71 = DIRECTION ( 'NONE',  ( -0.000000000000000000, -0.000000000000000000, -1.000000000000000000 ) ) ;
#72 = FACE_OUTER_BOUND ( 'NONE', #175, .T. ) ;
#73 = DIRECTION ( 'NONE',  ( -1.000000000000000000, -2.775557561562891351E-16, -0.000000000000000000 ) ) ;
#74 = CARTESIAN_POINT ( 'NONE',  ( -24.99999999999999289, -25.00000000000000000, 3.200000000000000178 ) ) ;
#75 = DIRECTION ( 'NONE',  ( 1.000000000000000000, 0.000000000000000000, -0.000000000000000000 ) ) ;
#76 = PLANE ( 'NONE',  #137 ) ;
#77 = PRODUCT_RELATED_PRODUCT_CATEGORY ( 'part', '', ( #52 ) ) ;
#78 = ORIENTED_EDGE ( 'NONE', *, *, #82, .F. ) ;
#79 = STYLED_ITEM ( 'NONE', ( #147 ), #13 ) ;
#80 = EDGE_LOOP ( 'NONE', ( #10, #156, #113, #115 ) ) ;
#81 = UNCERTAINTY_MEASURE_WITH_UNIT (LENGTH_MEASURE( 1.000000000000000082E-05 ), #24, 'distance_accuracy_value', 'NONE');
#82 = EDGE_CURVE ( 'NONE', #184, #105, #19, .T. ) ;
#83 = ADVANCED_BREP_SHAPE_REPRESENTATION ( 'PeltierPlate', ( #13, #143 ), #85 ) ;
#84 = CARTESIAN_POINT ( 'NONE',  ( -24.99999999999999289, 25.00000000000000000, 3.200000000000000178 ) ) ;
#85 =( GEOMETRIC_REPRESENTATION_CONTEXT ( 3 ) GLOBAL_UNCERTAINTY_ASSIGNED_CONTEXT ( ( #166 ) ) GLOBAL_UNIT_ASSIGNED_CONTEXT ( ( #44, #17, #8 ) ) REPRESENTATION_CONTEXT ( 'NONE', 'WORKASPACE' ) );
#86 = DIRECTION ( 'NONE',  ( 1.000000000000000000, 2.775557561562891351E-16, 0.000000000000000000 ) ) ;
#87 = FILL_AREA_STYLE ('',( #26 ) ) ;
#88 = VECTOR ( 'NONE', #3, 1000.000000000000000 ) ;
#89 = DIRECTION ( 'NONE',  ( 0.000000000000000000, 0.000000000000000000, -1.000000000000000000 ) ) ;
#90 = CARTESIAN_POINT ( 'NONE',  ( -24.99999999999999289, -25.00000000000000000, 0.000000000000000000 ) ) ;
#91 = EDGE_CURVE ( 'NONE', #102, #50, #30, .T. ) ;
#92 = FACE_OUTER_BOUND ( 'NONE', #80, .T. ) ;
#93 = AXIS2_PLACEMENT_3D ( 'NONE', #178, #118, #47 ) ;
#94 = PRODUCT_CONTEXT ( 'NONE', #185, 'mechanical' ) ;
#95 = VERTEX_POINT ( 'NONE', #119 ) ;
#96 = PRESENTATION_LAYER_ASSIGNMENT (  '', '', ( #79 ) ) ;
#97 = DIRECTION ( 'NONE',  ( 1.000000000000000000, 0.000000000000000000, 0.000000000000000000 ) ) ;
#98 = APPLICATION_PROTOCOL_DEFINITION ( 'draft international standard', 'automotive_design', 1998, #185 ) ;
#99 = ORIENTED_EDGE ( 'NONE', *, *, #100, .T. ) ;
#100 = EDGE_CURVE ( 'NONE', #116, #50, #180, .T. ) ;
#101 = VECTOR ( 'NONE', #42, 1000.000000000000000 ) ;
#102 = VERTEX_POINT ( 'NONE', #60 ) ;
#103 = CARTESIAN_POINT ( 'NONE',  ( -24.99999999999999289, 25.00000000000000000, 3.200000000000000178 ) ) ;
#104 = CARTESIAN_POINT ( 'NONE',  ( -24.99999999999999289, -25.00000000000000000, 0.000000000000000000 ) ) ;
#105 = VERTEX_POINT ( 'NONE', #31 ) ;
#106 = DIRECTION ( 'NONE',  ( 0.000000000000000000, 0.000000000000000000, 1.000000000000000000 ) ) ;
#107 = VECTOR ( 'NONE', #160, 1000.000000000000000 ) ;
#108 = FACE_OUTER_BOUND ( 'NONE', #51, .T. ) ;
#109 = DIRECTION ( 'NONE',  ( -2.775557561562891351E-16, 1.000000000000000000, 0.000000000000000000 ) ) ;
#110 = LINE ( 'NONE', #167, #20 ) ;
#111 = PRODUCT_DEFINITION_CONTEXT ( 'detailed design', #169, 'design' ) ;
#112 = CARTESIAN_POINT ( 'NONE',  ( 0.000000000000000000, 0.000000000000000000, 3.200000000000000178 ) ) ;
#113 = ORIENTED_EDGE ( 'NONE', *, *, #27, .F. ) ;
#114 = CARTESIAN_POINT ( 'NONE',  ( 0.000000000000000000, 0.000000000000000000, 0.000000000000000000 ) ) ;
#115 = ORIENTED_EDGE ( 'NONE', *, *, #127, .T. ) ;
#116 = VERTEX_POINT ( 'NONE', #177 ) ;
#117 = LINE ( 'NONE', #104, #140 ) ;
#118 = DIRECTION ( 'NONE',  ( 2.775557561562891351E-16, -1.000000000000000000, 0.000000000000000000 ) ) ;
#119 = CARTESIAN_POINT ( 'NONE',  ( 25.00000000000000711, 25.00000000000001421, 3.200000000000000178 ) ) ;
#120 = DIRECTION ( 'NONE',  ( -0.000000000000000000, -1.000000000000000000, -0.000000000000000000 ) ) ;
#121 = DIRECTION ( 'NONE',  ( -0.000000000000000000, -1.000000000000000000, -0.000000000000000000 ) ) ;
#122 = FACE_OUTER_BOUND ( 'NONE', #33, .T. ) ;
#123 = VECTOR ( 'NONE', #71, 1000.000000000000000 ) ;
#124 = ORIENTED_EDGE ( 'NONE', *, *, #4, .F. ) ;
#125 = ORIENTED_EDGE ( 'NONE', *, *, #57, .T. ) ;
#126 = SHAPE_DEFINITION_REPRESENTATION ( #144, #83 ) ;
#127 = EDGE_CURVE ( 'NONE', #95, #105, #14, .T. ) ;
#128 = ORIENTED_EDGE ( 'NONE', *, *, #4, .T. ) ;
#129 = EDGE_LOOP ( 'NONE', ( #67, #78, #170, #9 ) ) ;
#130 = CLOSED_SHELL ( 'NONE', ( #151, #159, #65, #133, #174, #142 ) ) ;
#131 = ORIENTED_EDGE ( 'NONE', *, *, #154, .T. ) ;
#132 = SURFACE_SIDE_STYLE ('',( #55 ) ) ;
#133 = ADVANCED_FACE ( 'NONE', ( #138 ), #76, .F. ) ;
#134 = CARTESIAN_POINT ( 'NONE',  ( 25.00000000000000711, -24.99999999999998579, 0.000000000000000000 ) ) ;
#135 = PLANE ( 'NONE',  #7 ) ;
#136 = DIRECTION ( 'NONE',  ( -0.000000000000000000, -0.000000000000000000, -1.000000000000000000 ) ) ;
#137 = AXIS2_PLACEMENT_3D ( 'NONE', #164, #21, #152 ) ;
#138 = FACE_OUTER_BOUND ( 'NONE', #182, .T. ) ;
#139 = PLANE ( 'NONE',  #40 ) ;
#140 = VECTOR ( 'NONE', #86, 1000.000000000000000 ) ;
#141 = APPLICATION_PROTOCOL_DEFINITION ( 'draft international standard', 'automotive_design', 1998, #169 ) ;
#142 = ADVANCED_FACE ( 'NONE', ( #29 ), #139, .F. ) ;
#143 = AXIS2_PLACEMENT_3D ( 'NONE', #114, #34, #97 ) ;
#144 = PRODUCT_DEFINITION_SHAPE ( 'NONE', 'NONE',  #15 ) ;
#145 = VECTOR ( 'NONE', #73, 1000.000000000000000 ) ;
#146 = LINE ( 'NONE', #103, #107 ) ;
#147 = PRESENTATION_STYLE_ASSIGNMENT (( #161 ) ) ;
#148 = CARTESIAN_POINT ( 'NONE',  ( -24.99999999999999289, -25.00000000000000000, 3.200000000000000178 ) ) ;
#149 = AXIS2_PLACEMENT_3D ( 'NONE', #46, #109, #2 ) ;
#150 = DIRECTION ( 'NONE',  ( 0.000000000000000000, 0.000000000000000000, 1.000000000000000000 ) ) ;
#151 = ADVANCED_FACE ( 'NONE', ( #92 ), #62, .F. ) ;
#152 = DIRECTION ( 'NONE',  ( 0.000000000000000000, 0.000000000000000000, 1.000000000000000000 ) ) ;
#153 = DIRECTION ( 'NONE',  ( 0.000000000000000000, 1.000000000000000000, 0.000000000000000000 ) ) ;
#154 = EDGE_CURVE ( 'NONE', #35, #95, #110, .T. ) ;
#155 = ORIENTED_EDGE ( 'NONE', *, *, #82, .T. ) ;
#156 = ORIENTED_EDGE ( 'NONE', *, *, #45, .F. ) ;
#157 = LINE ( 'NONE', #187, #101 ) ;
#158 = ORIENTED_EDGE ( 'NONE', *, *, #91, .T. ) ;
#159 = ADVANCED_FACE ( 'NONE', ( #122 ), #135, .F. ) ;
#160 = DIRECTION ( 'NONE',  ( -1.000000000000000000, -2.775557561562891351E-16, -0.000000000000000000 ) ) ;
#161 = SURFACE_STYLE_USAGE ( .BOTH. , #132 ) ;
#162 = PLANE ( 'NONE',  #149 ) ;
#163 = COLOUR_RGB ( '',0.7921568627450980005, 0.8196078431372548767, 0.9333333333333333481 ) ;
#164 = CARTESIAN_POINT ( 'NONE',  ( 25.00000000000000711, -24.99999999999998579, 3.200000000000000178 ) ) ;
#165 = LINE ( 'NONE', #74, #6 ) ;
#166 = UNCERTAINTY_MEASURE_WITH_UNIT (LENGTH_MEASURE( 1.000000000000000082E-05 ), #44, 'distance_accuracy_value', 'NONE');
#167 = CARTESIAN_POINT ( 'NONE',  ( 25.00000000000000711, -24.99999999999998579, 3.200000000000000178 ) ) ;
#168 = DIRECTION ( 'NONE',  ( 1.000000000000000000, 0.000000000000000000, -0.000000000000000000 ) ) ;
#169 = APPLICATION_CONTEXT ( 'automotive_design' ) ;
#170 = ORIENTED_EDGE ( 'NONE', *, *, #18, .F. ) ;
#171 = ORIENTED_EDGE ( 'NONE', *, *, #18, .T. ) ;
#172 = VECTOR ( 'NONE', #136, 1000.000000000000000 ) ;
#173 = CARTESIAN_POINT ( 'NONE',  ( 25.00000000000000711, -24.99999999999998579, 3.200000000000000178 ) ) ;
#174 = ADVANCED_FACE ( 'NONE', ( #72 ), #48, .T. ) ;
#175 = EDGE_LOOP ( 'NONE', ( #41, #39, #128, #131 ) ) ;
#176 = CARTESIAN_POINT ( 'NONE',  ( -24.99999999999999289, -25.00000000000000000, 3.200000000000000178 ) ) ;
#177 = CARTESIAN_POINT ( 'NONE',  ( -24.99999999999999289, -25.00000000000000000, 3.200000000000000178 ) ) ;
#178 = CARTESIAN_POINT ( 'NONE',  ( -24.99999999999999289, 25.00000000000000000, 3.200000000000000178 ) ) ;
#179 = EDGE_CURVE ( 'NONE', #105, #102, #32, .T. ) ;
#180 = LINE ( 'NONE', #148, #172 ) ;
#181 = VECTOR ( 'NONE', #11, 1000.000000000000000 ) ;
#182 = EDGE_LOOP ( 'NONE', ( #155, #64, #38, #125 ) ) ;
#183 = MECHANICAL_DESIGN_GEOMETRIC_PRESENTATION_REPRESENTATION (  '', ( #79 ), #68 ) ;
#184 = VERTEX_POINT ( 'NONE', #134 ) ;
#185 = APPLICATION_CONTEXT ( 'automotive_design' ) ;
#186 = CARTESIAN_POINT ( 'NONE',  ( -24.99999999999999289, -25.00000000000000000, 0.000000000000000000 ) ) ;
#187 = CARTESIAN_POINT ( 'NONE',  ( -24.99999999999999289, -25.00000000000000000, 3.200000000000000178 ) ) ;
ENDSEC;
END-ISO-10303-21;
